<svg width="36" height="36" viewBox="0 0 36 36" fill="none" xmlns="http://www.w3.org/2000/svg">
<path d="M23 19C21.5291 18.1491 19.8214 17.5 18 17.5C16.1786 17.5 14.4709 18.1491 13 19C11.8233 18.3193 10.4571 18 9 18C7.54285 18 6 18.5 6 18.5C6 13.0417 11.8805 8 17.9999 8C24.1194 8 30 13.0417 30 18.5C30 18.5 28.4571 18 27 18C25.5429 18 24.1767 18.3193 23 19Z" stroke="#0048D4" stroke-linejoin="bevel"/>
<path d="M13 19C13.423 14.4756 15.355 10.5376 18 8" stroke="#0048D4"/>
<path d="M18 18V27C18 29 15 29 15 27V26" stroke="#0048D4"/>
<path d="M18 8C20.645 10.5369 22.5771 14.4751 23 19" stroke="#0048D4"/>
</svg>
