<svg width="36" height="36" viewBox="0 0 36 36" fill="none" xmlns="http://www.w3.org/2000/svg">
<path d="M26 22.5V12.5C26 11.6716 25.3284 11 24.5 11C23.6716 11 23 11.6716 23 12.5V18V9.5C23 8.67157 22.3284 8 21.5 8C20.6716 8 20 8.67157 20 9.5V18V8.5C20 7.67157 19.3284 7 18.5 7C17.6716 7 17 7.67157 17 8.5V18V10.5C17 9.67157 16.3284 9 15.5 9C14.6716 9 14 9.67157 14 10.5V22L11.3492 20.3432C10.5594 19.8496 9.53351 19.9665 8.87498 20.625L8 21.5L15 29H23C24.6569 29 26 27.6569 26 26V22" stroke="#0048D4" stroke-linejoin="bevel"/>
</svg>
