<svg width="87" height="79" viewBox="0 0 87 79" fill="none" xmlns="http://www.w3.org/2000/svg">
<path d="M55.7228 39.4296L32.3374 20.155L55.7228 0.880371L79.1082 20.155L55.7228 39.4296ZM34.0078 20.155L55.7228 38.0486L77.4378 20.155L55.7228 2.26139L34.0078 20.155Z" fill="#0E264A"/>
<path d="M15.3936 40.3506C6.9016 40.3506 0 31.2938 0 20.1753C0 9.04687 6.9016 0 15.3936 0C23.8855 0 30.7871 9.04687 30.7871 20.1753C30.7771 31.2938 23.8755 40.3506 15.3936 40.3506ZM15.3936 1.0608C7.49173 1.0608 1.06024 9.63732 1.06024 20.1753C1.06024 30.7133 7.49173 39.2898 15.3936 39.2898C23.2954 39.2898 29.7269 30.7133 29.7269 20.1753C29.7269 9.63732 23.2954 1.0608 15.3936 1.0608Z" fill="#0E264A"/>
<path d="M86.5 79.0003L85.6898 78.4899C81.3188 75.7679 76.2776 74.3268 71.1064 74.3268C65.9453 74.3268 60.9041 75.7679 56.5231 78.4899L55.7129 79.0003V40.9814L56.5231 41.4918C60.8941 44.2139 65.9352 45.655 71.1064 45.655C76.2776 45.655 81.3088 44.2139 85.6898 41.4918L86.5 40.9814V79.0003ZM56.7831 42.8829V77.1089C61.1341 74.597 66.0653 73.266 71.1164 73.266C76.1676 73.266 81.0988 74.587 85.4498 77.1089V42.8829C81.0988 45.3948 76.1676 46.7258 71.1164 46.7258C66.0653 46.7258 61.1341 45.3948 56.7831 42.8829Z" fill="#0E264A"/>
<path d="M55.4528 11.9688C53.8424 11.9688 51.1318 12.5592 51.1318 15.2613C51.1318 19.9148 63.4647 16.7924 63.4647 24.2581C63.4647 28.6915 59.2537 29.9825 55.9329 29.9825C52.162 29.9825 47.9711 28.3012 47.9711 23.2073H50.4016C50.4016 26.2797 52.9322 27.8508 56.0129 27.8508C57.1432 27.8508 60.9041 27.5106 60.9041 24.3382C60.9041 19.1442 48.5712 22.4367 48.5712 15.4514C48.5712 10.8579 52.6722 9.80713 55.5628 9.80713C62.1543 9.80713 62.6645 14.6208 62.6645 15.9118H60.2339C60.2339 14.5607 59.3737 11.9688 55.4528 11.9688Z" fill="#0E264A"/>
<path d="M19.9946 19.3547V19.3047C20.9148 18.9444 22.8553 17.8536 22.8553 14.9814C22.8553 12.0692 20.4447 10.2578 16.9539 10.2578H9.02209V29.5424H17.8041C21.735 29.5424 23.6655 27.3108 23.6655 24.0082C23.6655 20.6157 21.1849 19.6049 19.9946 19.3547ZM11.5927 12.4094H16.1938C17.5341 12.4094 20.2947 12.3294 20.2947 15.4617C20.2947 18.1838 18.0742 18.5441 16.1938 18.5441H11.5927V12.4094ZM17.344 27.3708H11.5827V20.6957H16.9139C19.3645 20.6957 21.0949 21.5964 21.0949 23.9082C21.1049 25.5794 20.2547 27.3708 17.344 27.3708Z" fill="#0E264A"/>
<path d="M77.0978 66.9809C76.3776 67.9916 74.5772 69.813 71.1764 69.813C65.5651 69.813 62.3844 65.0994 62.3844 60.1156C62.3844 54.031 65.6051 49.6377 71.1764 49.6377C78.068 49.6377 79.0082 54.8917 79.1083 56.0426H76.5677C76.5177 55.292 75.7475 51.7993 71.1764 51.7993C67.3055 51.7993 64.945 55.0518 64.945 59.9855C64.945 64.6791 67.6856 67.6814 71.1764 67.6814C74.7973 67.6814 76.9978 65.1695 76.9978 61.3866H70.8464V59.225H79.2983V69.3827H77.6779L77.0978 66.9809Z" fill="#0E264A"/>
</svg>
