<svg width="707" height="698" viewBox="0 0 707 698" fill="none" xmlns="http://www.w3.org/2000/svg">
<g clip-path="url(#clip0)">
<path d="M201.982 348.78C197.029 351.64 191.276 353.844 184.786 355.372C173.951 357.915 161.72 358.431 148.426 356.87C135.58 355.381 122.344 352.041 109.086 346.966C95.8831 341.907 83.3769 335.392 71.9414 327.597C60.1818 319.581 50.1138 310.603 42.0096 300.901C33.9825 291.281 28.373 281.539 25.3491 271.94C22.4505 262.741 22.025 254.066 24.0911 246.154C26.128 238.323 30.5033 231.643 37.0951 226.295C43.8202 220.839 52.5723 217.013 63.1341 214.912C73.5849 212.827 85.2389 212.566 97.7588 214.117C109.826 215.615 122.247 218.718 134.661 223.351C147.119 228.007 159.011 233.98 170.017 241.11C181.49 248.552 191.521 256.969 199.83 266.112C208.248 275.365 214.43 284.871 218.212 294.347C221.921 303.644 223.167 312.538 221.923 320.777C220.659 329.138 216.887 336.367 210.74 342.276C208.17 344.719 205.249 346.893 201.982 348.78ZM43.9311 223.277C41.7826 224.517 39.7861 225.89 37.9347 227.384C31.5599 232.559 27.3381 239.009 25.3687 246.565C23.3655 254.22 23.7837 262.648 26.6095 271.59C29.5787 281.015 35.0928 290.592 43.0019 300.061C51.0154 309.658 60.9881 318.549 72.6412 326.485C83.9951 334.217 96.3971 340.682 109.503 345.703C122.652 350.746 135.772 354.043 148.523 355.524C161.679 357.054 173.758 356.563 184.441 354.045C195.009 351.563 203.536 347.269 209.794 341.264C215.745 335.563 219.377 328.588 220.598 320.52C221.809 312.536 220.582 303.882 216.972 294.811C213.256 285.502 207.163 276.149 198.872 267.011C190.647 257.961 180.711 249.631 169.331 242.245C158.417 235.172 146.612 229.244 134.251 224.626C121.928 220.02 109.615 216.948 97.6504 215.47C85.2618 213.937 73.7436 214.199 63.4263 216.254C55.9694 217.727 49.4492 220.091 43.9311 223.277Z" fill="#0076FE"/>
<path d="M345.757 102.403C336.194 98.0594 325.327 96.9695 313.478 99.1379C301.576 101.321 289.44 106.675 277.37 115.044C265.721 123.123 254.702 133.623 244.625 146.253C234.592 158.828 226.049 172.807 219.255 187.807C212.274 203.213 207.455 218.944 204.955 234.564C202.488 250.007 202.428 264.423 204.79 277.393C207.043 289.781 211.379 300.321 217.702 308.739C223.94 317.064 231.811 322.889 241.09 326.059C250.556 329.295 261.102 329.594 272.419 326.947C280.552 325.052 288.768 321.709 296.955 316.982C300.053 315.193 303.142 313.205 306.217 311.037C317.013 303.387 327.287 293.632 336.725 282.063C346.201 270.456 354.406 257.536 361.139 243.658C368.167 229.169 373.277 214.229 376.351 199.238C379.457 184.039 380.286 169.651 378.827 156.443C377.386 143.476 373.807 132.184 368.173 122.896C362.433 113.45 354.893 106.553 345.757 102.403Z" fill="#0076FE"/>
<path d="M559.898 377.127C566.25 374.655 572.692 371.738 579.055 368.474C585.406 365.216 591.779 361.553 598.015 357.574C604.263 353.589 610.504 349.2 616.558 344.54L619.501 342.274L596.732 429.906L548.017 381.28C545.578 382.043 543.153 382.751 540.756 383.379C534.43 385.034 528.147 386.269 522.066 387.043C515.984 387.816 509.992 388.145 504.278 388.014C502.018 387.965 499.804 387.812 497.598 387.622C494.968 388.967 492.231 390.233 489.392 391.4C484.024 393.618 478.214 395.541 472.117 397.125C469.929 397.696 467.678 398.21 465.401 398.706L449.396 471.418L598.027 430.244L621.795 338.779L615.73 343.445C609.698 348.092 603.485 352.45 597.271 356.415C591.079 360.367 584.729 364.018 578.412 367.256C572.095 370.494 565.686 373.392 559.374 375.856C555.212 377.472 551.047 378.902 546.911 380.172L548.011 381.268C551.961 380.041 555.936 378.675 559.898 377.127Z" fill="#0076FE"/>
<path d="M447.595 473.339L428.047 562.163L433.988 557.569C439.963 552.954 446.122 548.58 452.304 544.586C458.453 540.612 464.746 536.915 471.016 533.594C477.263 530.287 483.59 527.326 489.799 524.764C491.43 524.09 493.064 523.446 494.699 522.832L519.943 549.921L522.54 545.905C525.373 541.515 528.761 537.356 532.582 533.53C536.365 529.741 540.669 526.202 545.365 523.002C550.035 519.835 555.191 516.936 560.683 514.41C560.871 514.318 561.072 514.249 561.26 514.156C564.798 514.851 568.188 515.789 571.36 516.947L575.163 518.339L577.845 507.995C578.002 507.952 578.162 507.891 578.318 507.848C584.502 506.024 591.078 504.54 597.85 503.447C604.57 502.368 611.622 501.632 618.805 501.277C625.958 500.923 633.4 500.938 640.905 501.325C648.422 501.705 656.164 502.475 663.915 503.601L671.678 504.721L598.394 431.558L447.595 473.339ZM489.254 523.505C482.992 526.082 476.638 529.074 470.362 532.383C467.729 533.777 465.101 535.231 462.478 536.746C458.814 538.861 455.16 541.097 451.56 543.427C445.344 547.441 439.162 551.828 433.16 556.473L430.174 558.795L448.898 473.688L493.683 521.751C492.204 522.322 490.731 522.904 489.254 523.505ZM574.214 516.59L571.747 515.685C569.074 514.711 566.261 513.912 563.334 513.257C567.467 511.485 571.802 509.879 576.318 508.483L574.214 516.59Z" fill="#0076FE"/>
<path d="M521.85 385.704C527.873 384.933 534.103 383.712 540.378 382.072C542.537 381.502 544.732 380.864 546.917 380.184L527.952 361.255L525.554 364.622C522.96 368.275 519.833 371.764 516.266 374.988C512.688 378.218 508.616 381.245 504.162 383.974C502.757 384.832 501.296 385.644 499.806 386.458C501.278 386.552 502.754 386.628 504.25 386.661C509.899 386.783 515.832 386.457 521.85 385.704Z" fill="#0076FE"/>
<path d="M469.409 380.5L472.275 381.678C477.073 383.643 482.229 385.183 487.601 386.235C490.832 386.871 494.179 387.315 497.61 387.616C498.354 387.233 499.091 386.839 499.828 386.445C495.692 386.174 491.672 385.662 487.811 384.902C482.523 383.864 477.458 382.351 472.739 380.419L468.453 378.661L463.973 399.027C464.455 398.922 464.937 398.816 465.408 398.718L469.409 380.5Z" fill="#0076FE"/>
<path d="M447.784 472.491L463.955 399.022C460.316 399.769 456.582 400.431 452.784 400.955C446.071 401.889 439.049 402.497 431.912 402.747C424.734 403.005 417.303 402.905 409.836 402.481C402.333 402.045 394.618 401.244 386.926 400.115L379.317 399.001L447.784 472.491Z" fill="#0076FE"/>
<path d="M235.903 526.691L267.349 498.167L126.523 465.824L235.903 526.691Z" fill="#0076FE"/>
<path d="M129.553 465.145L268.569 497.069L369.906 405.158L319.22 508.703L268.569 497.069L267.349 498.167L319.478 510.143L319.977 510.249L372.539 402.851L129.553 465.145Z" fill="#0076FE"/>
<path d="M372.201 401.536L270.676 333.617L231.365 369.279L189.232 359.603L126.256 464.579L372.201 401.536ZM230.151 370.389L129.632 461.575L189.894 361.14L230.151 370.389Z" fill="#0076FE"/>
</g>
<defs>
<clipPath id="clip0">
<rect width="492.441" height="558.987" fill="white" transform="translate(0.160889 246.958) rotate(-30)"/>
</clipPath>
</defs>
</svg>
