<svg width="606" height="656" viewBox="0 0 606 656" fill="none" xmlns="http://www.w3.org/2000/svg">
    <g clip-path="url(#clip0)">
        <path d="M181.283 312.626C176.834 315.194 171.667 317.174 165.837 318.547C156.105 320.831 145.118 321.294 133.177 319.892C121.639 318.555 109.749 315.554 97.8409 310.996C85.9813 306.452 74.7477 300.599 64.4759 293.598C53.913 286.397 44.8695 278.334 37.59 269.619C30.3797 260.977 25.341 252.226 22.6249 243.605C20.0212 235.342 19.639 227.549 21.4949 220.443C23.3245 213.408 27.2545 207.408 33.1755 202.605C39.2163 197.704 47.0778 194.267 56.5648 192.38C65.9521 190.507 76.4203 190.272 87.6661 191.666C98.5051 193.011 109.662 195.799 120.813 199.96C132.003 204.142 142.685 209.508 152.571 215.912C162.877 222.597 171.887 230.157 179.351 238.37C186.912 246.681 192.465 255.22 195.862 263.731C199.194 272.082 200.313 280.072 199.195 287.472C198.06 294.982 194.672 301.475 189.15 306.783C186.842 308.978 184.218 310.931 181.283 312.626ZM39.3159 199.893C37.3861 201.008 35.5927 202.241 33.9297 203.583C28.2036 208.231 24.4115 214.024 22.6424 220.812C20.8431 227.688 21.2188 235.258 23.757 243.29C26.424 251.757 31.377 260.359 38.4813 268.864C45.6793 277.485 54.6372 285.471 65.1045 292.599C75.303 299.544 86.4429 305.352 98.215 309.861C110.026 314.391 121.811 317.353 133.264 318.683C145.082 320.058 155.932 319.616 165.528 317.355C175.02 315.125 182.68 311.268 188.301 305.875C193.646 300.753 196.908 294.489 198.005 287.241C199.092 280.07 197.99 272.297 194.748 264.148C191.41 255.786 185.937 247.386 178.49 239.178C171.102 231.048 162.177 223.566 151.955 216.932C142.152 210.579 131.548 205.253 120.445 201.106C109.375 196.968 98.3162 194.209 87.5687 192.881C76.4408 191.504 66.0947 191.739 56.8272 193.585C50.1292 194.908 44.2725 197.032 39.3159 199.893Z" fill="#0076FE"/>
        <path d="M310.429 91.3199C301.839 87.4183 292.078 86.4393 281.434 88.3871C270.743 90.3477 259.842 95.1575 249.001 102.674C238.537 109.931 228.639 119.363 219.588 130.708C210.576 142.003 202.902 154.56 196.799 168.033C190.529 181.871 186.201 196.002 183.955 210.032C181.739 223.904 181.685 236.853 183.807 248.503C185.83 259.63 189.725 269.098 195.404 276.659C201.008 284.137 208.078 289.369 216.412 292.217C224.916 295.123 234.388 295.392 244.554 293.014C251.859 291.312 259.239 288.309 266.593 284.063C269.376 282.456 272.15 280.671 274.912 278.723C284.61 271.852 293.838 263.089 302.316 252.697C310.827 242.271 318.198 230.667 324.245 218.201C330.558 205.186 335.148 191.767 337.909 178.3C340.699 164.648 341.444 151.725 340.133 139.861C338.839 128.213 335.624 118.07 330.564 109.728C325.408 101.243 318.635 95.048 310.429 91.3199Z" fill="#0076FE"/>
        <path d="M502.777 338.088C508.483 335.868 514.27 333.248 519.985 330.315C525.689 327.389 531.414 324.098 537.016 320.525C542.628 316.946 548.233 313.003 553.671 308.817L556.315 306.782L535.863 385.496L492.106 341.818C489.915 342.504 487.736 343.14 485.584 343.704C479.901 345.19 474.258 346.3 468.795 346.995C463.332 347.69 457.95 347.984 452.817 347.867C450.787 347.823 448.798 347.685 446.817 347.515C444.455 348.723 441.996 349.86 439.446 350.909C434.624 352.901 429.405 354.628 423.929 356.051C421.964 356.564 419.941 357.025 417.897 357.471L403.52 422.784L537.027 385.799L558.376 303.642L552.927 307.833C547.51 312.007 541.929 315.922 536.347 319.484C530.786 323.034 525.081 326.313 519.407 329.221C513.733 332.13 507.977 334.733 502.307 336.946C498.568 338.398 494.827 339.682 491.112 340.823L492.1 341.808C495.648 340.706 499.219 339.478 502.777 338.088Z" fill="#0076FE"/>
        <path d="M401.903 424.509L384.344 504.294L389.68 500.167C395.047 496.023 400.58 492.094 406.133 488.506C411.655 484.936 417.309 481.616 422.94 478.633C428.551 475.662 434.234 473.003 439.812 470.701C441.277 470.095 442.744 469.517 444.213 468.965L466.889 493.298L469.221 489.69C471.766 485.748 474.809 482.012 478.241 478.575C481.639 475.171 485.505 471.992 489.724 469.119C493.918 466.273 498.55 463.67 503.483 461.401C503.651 461.318 503.832 461.256 504.001 461.173C507.178 461.797 510.224 462.639 513.073 463.68L516.489 464.93L518.899 455.638C519.039 455.6 519.183 455.545 519.323 455.506C524.878 453.868 530.785 452.535 536.867 451.553C542.903 450.584 549.238 449.923 555.69 449.604C562.116 449.286 568.8 449.299 575.541 449.647C582.293 449.989 589.247 450.68 596.21 451.692L603.182 452.697L537.356 386.98L401.903 424.509ZM439.322 469.571C433.697 471.885 427.99 474.573 422.353 477.545C419.988 478.797 417.627 480.103 415.271 481.464C411.98 483.364 408.697 485.372 405.464 487.465C399.88 491.07 394.328 495.011 388.936 499.184L386.254 501.269L403.073 424.823L443.301 467.994C441.972 468.507 440.649 469.031 439.322 469.571ZM515.637 463.359L513.421 462.546C511.02 461.671 508.493 460.954 505.864 460.365C509.577 458.773 513.47 457.331 517.527 456.077L515.637 463.359Z" fill="#0076FE"/>
        <path d="M468.602 345.792C474.012 345.1 479.608 344.003 485.244 342.529C487.183 342.017 489.155 341.445 491.118 340.834L474.083 323.831L471.929 326.855C469.598 330.137 466.789 333.271 463.586 336.166C460.372 339.067 456.715 341.787 452.713 344.238C451.452 345.009 450.139 345.738 448.801 346.469C450.122 346.554 451.448 346.622 452.793 346.652C457.866 346.761 463.196 346.468 468.602 345.792Z" fill="#0076FE"/>
        <path d="M421.497 341.118L424.072 342.175C428.382 343.941 433.013 345.324 437.838 346.269C440.741 346.84 443.747 347.239 446.828 347.509C447.497 347.165 448.159 346.811 448.821 346.457C445.106 346.214 441.495 345.754 438.027 345.072C433.277 344.139 428.727 342.78 424.489 341.044L420.638 339.466L416.615 357.759C417.048 357.665 417.481 357.57 417.903 357.481L421.497 341.118Z" fill="#0076FE"/>
        <path d="M402.073 423.747L416.598 357.754C413.33 358.426 409.975 359.02 406.564 359.491C400.534 360.33 394.227 360.876 387.816 361.101C381.368 361.333 374.694 361.243 367.987 360.861C361.247 360.47 354.317 359.751 347.408 358.737L340.573 357.736L402.073 423.747Z" fill="#0076FE"/>
        <path d="M211.753 472.432L239.999 446.811L113.504 417.76L211.753 472.432Z" fill="#0076FE"/>
        <path d="M116.226 417.149L241.095 445.825L332.12 363.267L286.591 456.275L241.095 445.825L239.999 446.811L286.823 457.568L287.271 457.663L334.485 361.195L116.226 417.149Z" fill="#0076FE"/>
        <path d="M334.182 360.013L242.988 299.006L207.677 331.038L169.832 322.346L113.264 416.64L334.182 360.013ZM206.587 332.035L116.297 413.942L170.426 323.728L206.587 332.035Z" fill="#0076FE"/>
    </g>
    <defs>
        <clipPath id="clip0">
            <rect width="442.33" height="502.104" fill="white" transform="translate(0 221.165) rotate(-30)"/>
        </clipPath>
    </defs>
</svg>
