<svg width="192" height="192" viewBox="0 0 192 192" fill="none" xmlns="http://www.w3.org/2000/svg">
<path d="M96 192C43.0655 192 0 148.934 0 96C0 43.0655 43.0655 0 96 0C148.934 0 192 43.0655 192 96C192 148.934 148.934 192 96 192ZM96 1.79338C44.0546 1.79338 1.79338 44.0546 1.79338 96C1.79338 147.945 44.0546 190.207 96 190.207C147.945 190.207 190.207 147.945 190.207 96C190.207 44.0546 147.945 1.79338 96 1.79338Z" fill="#0048D4"/>
<path d="M69.8153 163.931L30.2971 131.387L69.8153 98.8423L109.333 131.387L69.8153 163.931ZM33.1176 131.387L69.8153 161.608L106.513 131.387L69.8153 101.164L33.1176 131.387Z" fill="#0048D4"/>
<path d="M69.8139 96.2147C55.475 96.2147 43.8113 80.9302 43.8113 62.1419C43.8113 43.3536 55.4764 28.0691 69.8139 28.0691C84.1514 28.0691 95.8165 43.3536 95.8165 62.1419C95.8165 80.9302 84.1527 96.2147 69.8139 96.2147ZM69.8139 29.8625C56.4641 29.8625 45.6047 44.3426 45.6047 62.1419C45.6047 79.9412 56.4655 94.4213 69.8139 94.4213C83.1637 94.4213 94.0245 79.9412 94.0245 62.1419C94.0245 44.3426 83.1637 29.8625 69.8139 29.8625Z" fill="#0048D4"/>
<path d="M164.417 131.387L163.046 130.532C155.658 125.928 147.141 123.494 138.415 123.494C129.688 123.494 121.17 125.928 113.783 130.532L112.412 131.387V67.1824L113.783 68.0369C121.171 72.6413 129.69 75.0746 138.415 75.0746C147.141 75.0746 155.658 72.6413 163.046 68.0369L164.417 67.1824V131.387ZM114.204 70.3819V128.187C121.552 123.939 129.888 121.701 138.415 121.701C146.941 121.701 155.277 123.939 162.624 128.187V70.3819C155.277 74.6303 146.94 76.868 138.415 76.868C129.887 76.868 121.552 74.6303 114.204 70.3819Z" fill="#0048D4"/>
<path d="M69.3573 117.55C66.6279 117.55 62.0588 118.548 62.0588 123.115C62.0588 130.974 82.9028 125.697 82.9028 138.303C82.9028 145.787 75.7958 147.973 70.1779 147.973C63.8128 147.973 56.7222 145.128 56.7222 136.525H60.8266C60.8266 141.712 65.0994 144.37 70.3138 144.37C72.2281 144.37 78.5688 143.789 78.5688 138.44C78.5688 129.667 57.7248 135.237 57.7248 123.435C57.7248 115.673 64.6579 113.901 69.538 113.901C80.6746 113.901 81.5333 122.022 81.5333 124.209H77.4275C77.4289 121.929 75.9738 117.55 69.3573 117.55Z" fill="#0048D4"/>
<path d="M77.5934 60.7575V60.6665C79.1449 60.0592 82.4273 58.2128 82.4273 53.3693C82.4273 48.4484 78.361 45.3875 72.4591 45.3875H59.0591V77.9535H73.8979C80.547 77.9535 83.7955 74.1779 83.7955 68.6035C83.7968 62.8851 79.6 61.1828 77.5934 60.7575ZM63.3931 49.0353H71.1617C73.4183 49.0353 78.0947 48.8954 78.0947 54.1886C78.0947 58.7807 74.3463 59.388 71.1617 59.388H63.3931V49.0353ZM73.1194 74.3043H63.3931V63.0373H72.3939C76.5336 63.0373 79.4642 64.5616 79.4642 68.465C79.4642 71.2719 78.0322 74.3043 73.1194 74.3043Z" fill="#0048D4"/>
<path d="M148.527 111.082C147.304 112.786 144.262 115.871 138.526 115.871C129.046 115.871 123.678 107.911 123.678 99.4972C123.678 89.2192 129.124 81.7998 138.526 81.7998C150.174 81.7998 151.76 90.677 151.932 92.6103H147.644C147.566 91.3373 146.258 85.4491 138.536 85.4491C131.999 85.4491 128.009 90.9379 128.009 99.2689C128.009 107.192 132.638 112.268 138.536 112.268C144.66 112.268 148.375 108.032 148.375 101.641H137.974V97.9918H152.249V115.142H149.513L148.527 111.082Z" fill="#0048D4"/>
</svg>
