<svg width="88" height="32" viewBox="0 0 88 32" fill="none" xmlns="http://www.w3.org/2000/svg">
<path d="M46.6864 10.5911C46.0504 10.1289 45.2366 9.89781 44.2471 9.89781C43.8452 9.89781 43.4501 9.9383 43.062 10.0183C42.6729 10.0983 42.3293 10.2326 42.0281 10.4202C41.7269 10.6079 41.4859 10.8587 41.3052 11.1727C41.1244 11.4878 41.0346 11.8788 41.0346 12.3479C41.0346 12.7894 41.1649 13.1479 41.4266 13.4224C41.6874 13.6969 42.036 13.9211 42.4705 14.0949C42.905 14.2687 43.3968 14.4129 43.9459 14.5265C44.495 14.6401 45.0529 14.7645 45.6228 14.8978C46.1916 15.0311 46.7506 15.1891 47.2996 15.3699C47.8487 15.5506 48.3405 15.7945 48.7751 16.1026C49.2096 16.4107 49.5582 16.7989 49.8189 17.267C50.0796 17.736 50.211 18.3246 50.211 19.0347C50.211 19.7971 50.0401 20.4499 49.6994 20.993C49.3577 21.5352 48.9192 21.9766 48.384 22.3183C47.8487 22.659 47.2493 22.9079 46.5866 23.061C45.924 23.215 45.2643 23.292 44.6085 23.292C43.8057 23.292 43.0452 23.1913 42.3293 22.9908C41.6133 22.7904 40.9842 22.4852 40.442 22.0773C39.8999 21.6695 39.4713 21.1471 39.1572 20.5111C38.8422 19.8751 38.6852 19.1226 38.6852 18.2525H40.4924C40.4924 18.8549 40.6099 19.3734 40.844 19.8089C41.078 20.2435 41.3861 20.6019 41.7673 20.8834C42.1485 21.1648 42.5939 21.3722 43.1025 21.5055C43.6111 21.6399 44.1335 21.706 44.6688 21.706C45.0974 21.706 45.529 21.6655 45.9635 21.5855C46.398 21.5055 46.7901 21.3683 47.1377 21.1737C47.4853 20.9802 47.7668 20.7155 47.9811 20.3807C48.1954 20.0459 48.302 19.6183 48.302 19.0959C48.302 18.6011 48.1717 18.1992 47.91 17.8911C47.6492 17.583 47.3006 17.3321 46.8661 17.1386C46.4306 16.945 45.9388 16.787 45.3907 16.6665C44.8416 16.546 44.2827 16.4226 43.7138 16.2952C43.145 16.1678 42.586 16.0207 42.0369 15.8538C41.4879 15.6869 40.9961 15.4657 40.5615 15.1911C40.126 14.9166 39.7784 14.562 39.5177 14.1265C39.257 13.692 39.1256 13.1459 39.1256 12.4901C39.1256 11.7673 39.2728 11.1411 39.5671 10.6128C39.8614 10.0845 40.2524 9.64895 40.7413 9.30725C41.2301 8.96556 41.7851 8.71175 42.4083 8.54387C43.0304 8.37697 43.6704 8.29303 44.3261 8.29303C45.0618 8.29303 45.7452 8.37993 46.3743 8.55374C47.0034 8.72755 47.5554 9.0021 48.0304 9.37737C48.5054 9.75165 48.8807 10.2237 49.1553 10.7935C49.4298 11.3624 49.5799 12.0418 49.6076 12.8318H47.8003C47.6927 11.7998 47.3214 11.0533 46.6864 10.5911Z" fill="#0048D4"/>
<path d="M44.4476 30.3168L27.0508 15.9903L44.4476 1.66287L61.8444 15.9903L44.4476 30.3168ZM28.2921 15.9903L44.4476 29.2947L60.603 15.9903L44.4476 2.68598L28.2921 15.9903Z" fill="#0048D4"/>
<path d="M19.9 16.5958C19.4309 15.9805 18.7554 15.5786 17.8715 15.3909V15.3505C18.5539 15.0828 19.0793 14.671 19.4477 14.116C19.816 13.561 19.9997 12.9013 19.9997 12.1379C19.9997 11.415 19.8358 10.8057 19.5079 10.311C19.18 9.81619 18.7821 9.42709 18.313 9.14564C18.0987 9.01232 17.8409 8.91159 17.5397 8.84443C17.2385 8.77827 16.9136 8.7279 16.566 8.69432C16.2174 8.66075 15.8668 8.641 15.5113 8.63408C15.1567 8.62717 14.8249 8.62421 14.5168 8.62421H9.71234V22.9616H16.245C16.9541 22.9616 17.5802 22.844 18.1224 22.61C18.6645 22.3759 19.1198 22.0678 19.4882 21.6866C19.8565 21.3054 20.134 20.8669 20.3217 20.3712C20.5083 19.8764 20.6031 19.3668 20.6031 18.8454C20.6031 17.9606 20.3681 17.211 19.9 16.5958ZM11.6203 10.23H15.0402C15.455 10.23 15.847 10.2537 16.2144 10.3001C16.5828 10.3475 16.9077 10.4512 17.1881 10.6112C17.4696 10.7712 17.6898 10.9993 17.8508 11.2936C18.0118 11.5879 18.0918 11.9898 18.0918 12.4984C18.0918 13.2618 17.8538 13.8336 17.3787 14.2158C16.9027 14.5969 16.1236 14.7875 15.0392 14.7875H11.6203V10.23ZM17.9821 20.6714C17.5071 21.1267 16.8474 21.3548 16.0041 21.3548H11.6203V16.3943H15.5834C15.9853 16.3943 16.3734 16.4318 16.7477 16.5049C17.123 16.578 17.4538 16.7054 17.7422 16.8861C18.0295 17.0668 18.2606 17.3108 18.4344 17.6189C18.6083 17.927 18.6952 18.3151 18.6952 18.7832C18.6952 19.5871 18.4572 20.2171 17.9821 20.6714Z" fill="#0048D4"/>
<path d="M14.4468 31C8.13529 31 3 24.2708 3 16C3 7.72921 8.13529 1 14.4468 1C20.7592 1 25.8945 7.72921 25.8945 16C25.8945 24.2708 20.7592 31 14.4468 31ZM14.4468 1.79005C8.57081 1.79005 3.78906 8.16472 3.78906 16C3.78906 23.8353 8.56982 30.21 14.4468 30.21C20.3237 30.21 25.1045 23.8353 25.1045 16C25.1045 8.16472 20.3237 1.79005 14.4468 1.79005Z" fill="#0048D4"/>
<path d="M79.1 21.1836C78.5618 21.9331 77.8952 22.4723 77.1002 22.8002C76.3053 23.1281 75.5044 23.292 74.6975 23.292C73.6714 23.292 72.756 23.0945 71.9482 22.6995C71.1403 22.3045 70.455 21.7722 69.8911 21.1036C69.3272 20.434 68.8976 19.6647 68.6033 18.7947C68.308 17.9246 68.1609 17.021 68.1609 16.0838C68.1609 15.04 68.2982 14.0455 68.5747 13.1014C68.8502 12.1573 69.26 11.3307 69.8052 10.6217C70.3503 9.9126 71.0287 9.34673 71.8435 8.92505C72.6572 8.50336 73.6092 8.29202 74.6985 8.29202C75.4421 8.29202 76.1433 8.38288 76.804 8.5636C77.4637 8.74432 78.0532 9.02874 78.5727 9.41685C79.0921 9.80595 79.5277 10.2977 79.8802 10.8923C80.2328 11.4878 80.4727 12.2077 80.6011 13.0511H78.7139C78.626 12.502 78.4611 12.0299 78.2221 11.6349C77.9821 11.2399 77.6859 10.915 77.3333 10.6612C76.9798 10.4074 76.5798 10.2158 76.1324 10.0894C75.6851 9.96198 75.2091 9.89878 74.7044 9.89878C73.8848 9.89878 73.1816 10.0736 72.595 10.4212C72.0084 10.7688 71.5294 11.228 71.1571 11.7969C70.7848 12.3657 70.5103 13.0155 70.3345 13.7443C70.1577 14.4741 70.0698 15.2197 70.0698 15.9831C70.0698 16.7337 70.1706 17.4526 70.373 18.1419C70.5745 18.8312 70.8707 19.4405 71.2618 19.9689C71.6529 20.4982 72.1348 20.9199 72.7086 21.2339C73.2824 21.549 73.947 21.706 74.7044 21.706C75.4105 21.706 76.0347 21.5855 76.5768 21.3446C77.119 21.1036 77.5762 20.7718 77.9476 20.3501C78.3189 19.9284 78.6003 19.4336 78.789 18.8638C78.9776 18.295 79.0596 17.6827 79.0349 17.027H74.4566V15.4202H80.7414V22.9701H79.5365L79.1 21.1836Z" fill="#0048D4"/>
<path d="M86.0941 30.122L85.4907 29.7457C82.2386 27.7193 78.4889 26.6478 74.6473 26.6478C70.8057 26.6478 67.056 27.7193 63.804 29.7457L63.2006 30.122V1.85812L63.804 2.23438C67.057 4.26085 70.8067 5.33235 74.6473 5.33235C78.4889 5.33235 82.2386 4.26085 85.4907 2.23438L86.0941 1.85812V30.122ZM63.9886 3.26638V28.7137C67.2229 26.8433 70.8926 25.8587 74.6463 25.8587C78.4 25.8587 82.0698 26.8443 85.304 28.7137V3.26638C82.0698 5.13681 78.4 6.12141 74.6463 6.12141C70.8936 6.12141 67.2239 5.13583 63.9886 3.26638Z" fill="#0048D4"/>
</svg>
