<svg width="88" height="32" viewBox="0 0 88 32" fill="none" xmlns="http://www.w3.org/2000/svg">
<g clip-path="url(#clip0)">
<path d="M46.2656 10.1574C45.592 9.66789 44.7302 9.42316 43.6823 9.42316C43.2566 9.42316 42.8383 9.46604 42.4273 9.55076C42.0152 9.63547 41.6512 9.77771 41.3322 9.97642C41.0133 10.1751 40.7581 10.4408 40.5667 10.7734C40.3753 11.107 40.2801 11.5212 40.2801 12.0179C40.2801 12.4854 40.4182 12.8651 40.6953 13.1558C40.9714 13.4466 41.3406 13.684 41.8008 13.8681C42.261 14.0522 42.7818 14.2048 43.3633 14.3251C43.9448 14.4454 44.5357 14.5772 45.1392 14.7184C45.7416 14.8596 46.3336 15.0269 46.9151 15.2183C47.4966 15.4097 48.0174 15.668 48.4776 15.9943C48.9378 16.3206 49.3069 16.7317 49.5831 17.2274C49.8592 17.7242 49.9983 18.3475 49.9983 19.0995C49.9983 19.9069 49.8173 20.5982 49.4565 21.1734C49.0946 21.7476 48.6303 22.2151 48.0634 22.577C47.4966 22.9378 46.8617 23.2014 46.1599 23.3635C45.4582 23.5266 44.7595 23.6082 44.0651 23.6082C43.2148 23.6082 42.4095 23.5015 41.6512 23.2892C40.893 23.0769 40.2268 22.7537 39.6526 22.3218C39.0784 21.8899 38.6245 21.3366 38.2919 20.6631C37.9583 19.9895 37.792 19.1926 37.792 18.2712H39.7059C39.7059 18.9091 39.8304 19.4582 40.0782 19.9194C40.3261 20.3796 40.6524 20.7593 41.0561 21.0573C41.4598 21.3554 41.9315 21.575 42.4701 21.7162C43.0088 21.8585 43.562 21.9285 44.1289 21.9285C44.5828 21.9285 45.0398 21.8857 45.5 21.801C45.9602 21.7162 46.3754 21.5709 46.7435 21.3648C47.1117 21.1598 47.4098 20.8795 47.6367 20.525C47.8637 20.1705 47.9766 19.7176 47.9766 19.1643C47.9766 18.6404 47.8386 18.2147 47.5614 17.8884C47.2853 17.5621 46.9161 17.2964 46.4559 17.0914C45.9947 16.8864 45.4739 16.7191 44.8934 16.5915C44.3119 16.4639 43.7199 16.3332 43.1175 16.1983C42.5151 16.0633 41.9232 15.9075 41.3417 15.7308C40.7602 15.554 40.2393 15.3197 39.7791 15.029C39.3179 14.7382 38.9498 14.3628 38.6737 13.9015C38.3975 13.4414 38.2584 12.863 38.2584 12.1686C38.2584 11.403 38.4143 10.7399 38.7259 10.1804C39.0376 9.62083 39.4518 9.1596 39.9695 8.79773C40.4872 8.43587 41.075 8.16708 41.7349 7.98928C42.3938 7.81253 43.0715 7.72363 43.766 7.72363C44.5451 7.72363 45.2689 7.81567 45.9351 7.99974C46.6013 8.18381 47.1859 8.47456 47.689 8.87199C48.1921 9.26837 48.5895 9.7683 48.8802 10.3718C49.171 10.9742 49.33 11.6937 49.3592 12.5304H47.4453C47.3313 11.4375 46.9381 10.6468 46.2656 10.1574Z" fill="white"/>
<path d="M43.8946 31.0474L25.4707 15.875L43.8946 0.70166L62.3186 15.875L43.8946 31.0474ZM26.7854 15.875L43.8946 29.9649L61.0039 15.875L43.8946 1.78517L26.7854 15.875Z" fill="white"/>
<path d="M17.898 16.5164C17.4012 15.8649 16.6859 15.4392 15.7498 15.2405V15.1976C16.4725 14.9142 17.0289 14.478 17.419 13.8903C17.8091 13.3025 18.0036 12.6039 18.0036 11.7954C18.0036 11.0298 17.83 10.3845 17.4828 9.86055C17.1356 9.33658 16.7141 8.92451 16.2173 8.62644C15.9904 8.48524 15.7174 8.37857 15.3984 8.30745C15.0794 8.23737 14.7353 8.18404 14.3672 8.14848C13.998 8.11292 13.6267 8.092 13.2502 8.08468C12.8747 8.07736 12.5233 8.07422 12.197 8.07422H7.10889V23.2581H14.0273C14.7782 23.2581 15.4413 23.1336 16.0155 22.8857C16.5896 22.6379 17.0718 22.3116 17.4619 21.9079C17.852 21.5041 18.1459 21.0398 18.3446 20.5148C18.5423 19.9908 18.6427 19.4511 18.6427 18.8989C18.6427 17.9618 18.3938 17.168 17.898 16.5164ZM9.1295 9.77479H12.7513C13.1906 9.77479 13.6058 9.79989 13.9949 9.84905C14.385 9.89925 14.729 10.0091 15.0261 10.1785C15.3241 10.3479 15.5574 10.5895 15.7278 10.9012C15.8983 11.2129 15.983 11.6385 15.983 12.1771C15.983 12.9856 15.731 13.5911 15.2279 13.9959C14.7238 14.3996 13.8986 14.6015 12.7503 14.6015H9.1295V9.77479ZM15.8669 20.8327C15.3639 21.3148 14.6652 21.5564 13.7721 21.5564H9.1295V16.3031H13.3265C13.7522 16.3031 14.1632 16.3428 14.5596 16.4202C14.957 16.4976 15.3074 16.6325 15.6128 16.8239C15.9171 17.0153 16.1619 17.2736 16.346 17.5999C16.53 17.9263 16.6221 18.3373 16.6221 18.833C16.6221 19.6843 16.37 20.3516 15.8669 20.8327Z" fill="white"/>
<path d="M12.1226 31.7712C5.43849 31.7712 0 24.6447 0 15.8856C0 7.12651 5.43849 0 12.1226 0C18.8078 0 24.2462 7.12651 24.2462 15.8856C24.2462 24.6447 18.8078 31.7712 12.1226 31.7712ZM12.1226 0.836691C5.89971 0.836691 0.835645 7.58774 0.835645 15.8856C0.835645 24.1835 5.89867 30.9346 12.1226 30.9346C18.3465 30.9346 23.4096 24.1835 23.4096 15.8856C23.4096 7.58774 18.3465 0.836691 12.1226 0.836691Z" fill="white"/>
<path d="M80.5933 21.3753C80.0233 22.1692 79.3174 22.7402 78.4755 23.0874C77.6335 23.4347 76.7853 23.6083 75.9309 23.6083C74.8442 23.6083 73.8747 23.3991 73.0192 22.9807C72.1637 22.5624 71.4378 21.9987 70.8407 21.2906C70.2435 20.5815 69.7885 19.7668 69.4768 18.8454C69.1641 17.924 69.0083 16.967 69.0083 15.9745C69.0083 14.869 69.1537 13.8159 69.4465 12.816C69.7383 11.8162 70.1723 10.9408 70.7497 10.1898C71.327 9.43892 72.0455 8.83964 72.9083 8.39305C73.7701 7.94647 74.7783 7.72266 75.9319 7.72266C76.7195 7.72266 77.462 7.81888 78.1617 8.01027C78.8603 8.20166 79.4847 8.50287 80.0348 8.91389C80.585 9.32596 81.0462 9.8468 81.4196 10.4764C81.7929 11.1071 82.0471 11.8695 82.183 12.7627H80.1844C80.0913 12.1812 79.9167 11.6812 79.6636 11.2629C79.4094 10.8446 79.0957 10.5005 78.7223 10.2317C78.3479 9.96289 77.9243 9.76 77.4505 9.62613C76.9767 9.49121 76.4726 9.42428 75.9382 9.42428C75.0701 9.42428 74.3255 9.60939 73.7042 9.97754C73.083 10.3457 72.5757 10.832 72.1814 11.4344C71.7872 12.0368 71.4964 12.725 71.3102 13.4969C71.123 14.2698 71.03 15.0594 71.03 15.8678C71.03 16.6627 71.1366 17.4241 71.351 18.1541C71.5644 18.8841 71.8781 19.5294 72.2923 20.0889C72.7065 20.6495 73.2169 21.0961 73.8245 21.4287C74.4321 21.7623 75.136 21.9286 75.9382 21.9286C76.686 21.9286 77.347 21.801 77.9211 21.5458C78.4953 21.2906 78.9796 20.9392 79.3728 20.4926C79.7661 20.0461 80.0641 19.5221 80.2639 18.9186C80.4636 18.3162 80.5504 17.6678 80.5243 16.9733H75.6757V15.2717H82.3316V23.2673H81.0556L80.5933 21.3753Z" fill="white"/>
<path d="M88 30.8413L87.361 30.4428C83.917 28.2967 79.9459 27.162 75.8775 27.162C71.8091 27.162 67.8379 28.2967 64.3939 30.4428L63.7549 30.8413V0.908691L64.3939 1.30717C67.839 3.45328 71.8101 4.58804 75.8775 4.58804C79.9459 4.58804 83.917 3.45328 87.361 1.30717L88 0.908691V30.8413ZM64.5895 2.40009V29.3499C68.0147 27.369 71.9011 26.3263 75.8764 26.3263C79.8517 26.3263 83.7382 27.3701 87.1634 29.3499V2.40009C83.7382 4.38096 79.8517 5.42368 75.8764 5.42368C71.9021 5.42368 68.0157 4.37991 64.5895 2.40009Z" fill="white"/>
</g>
<defs>
<clipPath id="clip0">
<rect width="88" height="31.7712" fill="white"/>
</clipPath>
</defs>
</svg>
