<svg width="36" height="36" viewBox="0 0 36 36" fill="none" xmlns="http://www.w3.org/2000/svg">
<path d="M26.5 7.5C26.5 7.5 22.5 6 18 6C13.5 6 9.5 7.5 9.5 7.5V30C9.5 30 13.5 28.5 18 28.5C22.5 28.5 26.5 30 26.5 30" stroke="#0048D4" stroke-linejoin="bevel"/>
<path d="M16 11.093C16.647 11.0345 17.3178 11 18 11C20.0465 11 21.9895 11.3102 23.5 11.6485M12.5 11.6485C13.1044 11.5131 13.7781 11.3823 14.5 11.274L12.5 11.6485Z" stroke="#0048D4" stroke-linejoin="bevel"/>
<path d="M16 14.093C16.647 14.0345 17.3178 14 18 14C20.0465 14 21.9895 14.3102 23.5 14.6485M12.5 14.6485C13.1044 14.5131 13.7781 14.3823 14.5 14.274L12.5 14.6485Z" stroke="#0048D4" stroke-linejoin="bevel"/>
<path d="M16 17.093C16.647 17.0345 17.3178 17 18 17C20.0465 17 21.9895 17.3102 23.5 17.6485M12.5 17.6485C13.1044 17.5131 13.7781 17.3823 14.5 17.274L12.5 17.6485Z" stroke="#0048D4" stroke-linejoin="bevel"/>
<path d="M26.5 9.5V28" stroke="#0048D4"/>
<path d="M16 23L18 25.5L21.5 21" stroke="#0048D4" stroke-linejoin="bevel"/>
</svg>
