<svg width="56" height="56" viewBox="0 0 56 56" fill="none" xmlns="http://www.w3.org/2000/svg">
<path d="M40.9655 15.494H39.5889V25.8306H40.9655V15.494Z" fill="#0048D4"/>
<path d="M40.5067 28.2262C37.3567 27.1451 34.0512 26.4684 30.6834 26.2273L30.5823 27.604C33.6623 27.8217 36.6878 28.4206 39.5889 29.3773V33.2429C36.7112 32.3329 33.7245 31.7417 30.6834 31.524L30.5823 32.9006C33.6389 33.1184 36.6412 33.7251 39.5189 34.6662C39.3867 35.9106 39.0134 37.1006 38.4378 38.1817C35.9178 37.474 33.3123 37.0073 30.6756 36.8206L30.5745 38.1973C32.9778 38.3684 35.3578 38.7884 37.6678 39.4106C36.8823 40.4606 35.8945 41.3706 34.7201 42.0473L27.8678 46.014L21.0156 42.0473C18.0212 40.3284 16.1545 37.124 16.1545 33.6784V29.3929C19.7167 28.2184 23.4189 27.5962 27.1756 27.5262V43.3617H28.5523V13.7206H27.1756V15.564C24.0956 15.6184 21.0312 16.0229 18.0445 16.8006L18.3945 18.1306C21.2645 17.384 24.2201 16.9873 27.1756 16.9329V20.8451C24.0956 20.8995 21.0234 21.304 18.0445 22.0817L18.3945 23.4117C21.2645 22.6651 24.2123 22.2762 27.1756 22.2217V26.1262C23.4189 26.1884 19.7167 26.7951 16.1545 27.9229V13.5184C23.8623 10.9829 32.3634 11.0373 40.0478 13.674L40.4989 12.3751C32.3789 9.58286 23.3723 9.58286 15.2445 12.3751L14.7778 12.5384V33.6629C14.7778 37.5984 16.9012 41.2617 20.3234 43.2217L27.8678 47.5851L35.4045 43.2217C38.8267 41.2617 40.9578 37.5906 40.9578 33.6629V28.3817L40.5067 28.2262Z" fill="#0048D4"/>
</svg>
