<svg width="56" height="56" viewBox="0 0 56 56" fill="none" xmlns="http://www.w3.org/2000/svg">
<path d="M28.5209 34.0595L27.9998 34.1917V39.6439H26.6231V41.0206H29.3764V35.2106C29.7731 35.0395 30.1309 34.7984 30.4342 34.495C31.0875 33.8417 31.4453 32.9784 31.4453 32.0606C31.4453 31.1428 31.0875 30.2795 30.4342 29.6262C29.0964 28.2806 26.9109 28.2806 25.5653 29.6262C24.912 30.2795 24.5542 31.1428 24.5542 32.0606C24.5542 32.9784 24.912 33.8495 25.5653 34.495L26.5375 33.5228C26.1486 33.1339 25.9309 32.6128 25.9309 32.0606C25.9309 31.5084 26.1486 30.9873 26.5375 30.5984C27.3231 29.8206 28.6764 29.8206 29.462 30.5984C29.8509 30.9873 30.0686 31.5084 30.0686 32.0606C30.0686 32.6128 29.8509 33.1339 29.462 33.5228C29.2131 33.7873 28.8942 33.9584 28.5209 34.0595Z" fill="#0048D4"/>
<path d="M42.4665 27.9306H41.0898V41.7128H42.4665V27.9306Z" fill="#0048D4"/>
<path d="M14.9099 43.6806V25.9628C23.4965 23.0384 32.9854 23.0928 41.5488 26.1262L42.0077 24.8273C34.3776 22.1284 26.0476 21.7239 18.1999 23.5906V20.355C18.1999 15.035 22.5243 10.7106 27.8443 10.7106C33.1643 10.7106 37.4888 15.035 37.4888 20.355V21.7317H38.8654V20.355C38.8654 14.2806 33.9188 9.33394 27.8443 9.33394C21.7699 9.33394 16.8232 14.2806 16.8232 20.355V23.9406C15.8743 24.205 14.9254 24.4928 13.9921 24.8195L13.5332 24.9828V44.6528L13.9921 44.8162C18.4954 46.4106 23.2088 47.2195 27.9999 47.2195C32.791 47.2195 37.5043 46.4106 42.0077 44.8162L41.5488 43.5173C32.9854 46.5506 23.5043 46.605 14.9099 43.6806Z" fill="#0048D4"/>
<path d="M23.4653 15.9684L24.4376 16.9406C25.3476 16.0306 26.5609 15.525 27.8442 15.525C30.5042 15.525 32.6664 17.6873 32.6664 20.3473H34.0431C34.0431 16.925 31.2587 14.1484 27.8442 14.1484C26.1953 14.1562 24.6398 14.8017 23.4653 15.9684Z" fill="#0048D4"/>
</svg>
