<svg width="56" height="56" viewBox="0 0 56 56" fill="none" xmlns="http://www.w3.org/2000/svg">
<path d="M47.1413 27.1606H43.6957H36.8046H31.9824V28.5373H36.7735C36.4391 32.9239 32.9313 36.4317 28.5446 36.7662V31.9751H27.168V47.1339H28.5446V43.6573C36.7346 43.2995 43.3146 36.7195 43.6646 28.5373H47.1413V27.1606ZM28.5369 42.2962V38.1584C33.6857 37.8162 37.8157 33.6862 38.158 28.5373H42.2957C41.9535 35.9651 35.9646 41.9462 28.5369 42.2962Z" fill="#0048D4"/>
<path d="M28.5368 18.9162C32.1846 19.2039 35.3735 21.7395 36.4313 25.2862L37.7535 24.8895C36.5246 20.7673 32.7913 17.8195 28.5446 17.5317V13.3939C35.2257 13.7128 40.8568 18.5817 42.0702 25.2162L43.4235 24.9673C42.0857 17.6795 35.879 12.3517 28.5368 12.0328V8.55617H27.1602V23.7151H28.5368V18.9162Z" fill="#0048D4"/>
<path d="M17.9434 24.8973L19.2656 25.2939C20.1289 22.3851 22.3845 20.1373 25.2856 19.2739L24.8889 17.9517C21.5445 18.9473 18.9467 21.5451 17.9434 24.8973Z" fill="#0048D4"/>
<path d="M25.2157 13.6273L24.9668 12.2739C18.5579 13.4562 13.4557 18.5506 12.2734 24.9673L13.6268 25.2162C14.7079 19.3595 19.359 14.7084 25.2157 13.6273Z" fill="#0048D4"/>
<path d="M24.8968 37.7462L25.2934 36.4239C21.7468 35.3662 19.2112 32.1773 18.9234 28.5295H23.7146V27.1528H18.8923H12.0012H8.55566V28.5295H12.0323C12.3512 35.8717 17.6868 42.0706 24.9668 43.4162L25.2157 42.0628C18.5812 40.8417 13.7123 35.2106 13.3934 28.5373H17.5312C17.8268 32.7917 20.7668 36.5173 24.8968 37.7462Z" fill="#0048D4"/>
</svg>
