<svg width="56" height="56" viewBox="0 0 56 56" fill="none" xmlns="http://www.w3.org/2000/svg">
<path d="M27.8252 33.4203H15.2219L14.5977 32.4089L27.1931 7.21004L28.4495 7.83429L16.3519 32.0217H27.8252V33.4203Z" fill="#0048D4"/>
<path d="M30.899 31.6345L29.6426 31.0023L31.2388 27.8179H22.9261L22.2939 26.8065L24.3958 22.6027L25.6443 23.2349L24.056 26.4193H32.3687L33.0009 27.4307L30.899 31.6345Z" fill="#0048D4"/>
<path d="M39.0222 46.0157H34.123V47.4144H39.0222V46.0157Z" fill="#0048D4"/>
<path d="M21.5197 46.0157H16.6206V47.4144H21.5197V46.0157Z" fill="#0048D4"/>
<path d="M18.4625 40.5051L17.7632 41.7163L22.0058 44.1659L22.7051 42.9547L18.4625 40.5051Z" fill="#0048D4"/>
<path d="M22.8173 36.6624L21.606 37.3614L24.0545 41.6045L25.2659 40.9055L22.8173 36.6624Z" fill="#0048D4"/>
<path d="M37.164 40.5304L32.9224 42.9819L33.6222 44.1928L37.8639 41.7413L37.164 40.5304Z" fill="#0048D4"/>
<path d="M39.2908 22.2234L28.5207 43.7558V35.5222H27.1221V46.719L28.4496 47.0272L41.045 21.8363L40.4208 20.8169H28.5207V14.5192H27.1221V22.2234H39.2908Z" fill="#0048D4"/>
</svg>
