<svg width="30" height="37" viewBox="0 0 30 37" fill="none" xmlns="http://www.w3.org/2000/svg">
<path fill-rule="evenodd" clip-rule="evenodd" d="M15.7309 12.2234C14.8064 13.1479 14.2927 14.3806 14.2927 15.6844V16.3876H14.996C19.2235 16.3876 23.3877 17.083 27.3702 18.45L27.8285 17.1225C23.9408 15.7871 19.8872 15.068 15.7704 14.989C15.9047 14.3173 16.2287 13.701 16.7265 13.2032C17.3902 12.5394 18.2673 12.176 19.1998 12.176H22.5343L25.6713 0.457599L24.3201 0.0941162L21.4597 10.7931H19.1998C17.8881 10.7931 16.6554 11.2989 15.7309 12.2234ZM12.1909 10.7931V12.1918H7.4577L4.32069 0.473401L5.6719 0.109919L8.53235 10.7931H12.1909ZM12.1909 19.8881V21.2867H8.39802L1.32592 33.5424L0.116943 32.8391L7.59203 19.8881H12.1909ZM14.996 9.39453C17.3112 9.39453 19.1919 7.5139 19.1919 5.19867C19.1919 2.88345 17.3112 0.994921 14.996 0.994921C12.6808 0.994921 10.8002 2.87555 10.8002 5.19867C10.7923 7.506 12.6808 9.39453 14.996 9.39453ZM14.996 2.39354C16.5369 2.39354 17.7933 3.64992 17.7933 5.19077C17.7933 6.73162 16.5369 7.98801 14.996 7.98801C13.4552 7.98801 12.1988 6.73162 12.1988 5.19077C12.1988 3.64992 13.4552 2.39354 14.996 2.39354ZM29.8751 32.8391L28.6661 33.5424L21.594 21.2946H15.7941C16.0232 22.1243 16.6633 22.8276 17.5562 23.1752C20.2507 24.2341 22.0365 26.8891 21.997 29.789C21.9496 33.5424 18.8521 36.632 15.0987 36.6873H14.996C13.1391 36.6873 11.4007 35.9761 10.0811 34.6723C8.7378 33.3448 7.99503 31.5749 7.99503 29.6863C7.99503 27.8215 8.72199 26.0594 10.0416 24.7398L11.0293 25.7275C9.97047 26.7864 9.38574 28.1929 9.38574 29.6863C9.38574 31.2035 9.97838 32.6179 11.053 33.6767C12.1277 34.7356 13.55 35.2966 15.0671 35.2887C18.0224 35.2492 20.551 32.7206 20.5905 29.7732C20.6221 27.458 19.1998 25.3245 17.0426 24.479C15.3674 23.8232 14.2927 22.2981 14.2927 20.5914V19.8881H22.4L29.8751 32.8391ZM12.1435 15.0996L12.2462 16.4982C8.94323 16.7353 5.71141 17.3911 2.6218 18.4579L2.1635 17.1304C5.36372 16.032 8.72199 15.3446 12.1435 15.0996Z" fill="#0048D4"/>
</svg>
