<svg width="34" height="10" viewBox="0 0 34 10" fill="none" xmlns="http://www.w3.org/2000/svg">
<path d="M8.69727 0.5H10.236V10H8.69727V0.5Z" fill="#17313B"/>
<path d="M15.5881 6.98949C15.5881 8.46132 14.3839 8.59512 13.9824 8.59512C13.0458 8.59512 12.912 7.7254 12.912 7.25709V3.57751H11.3733V7.19019C11.3733 8.05991 11.6409 8.86272 12.1761 9.33103C12.6444 9.79934 13.2465 10 13.9824 10C14.5177 10 15.1867 9.86625 15.5881 9.46484V10H17.1268V3.57751H15.5881V6.98949Z" fill="#17313B"/>
<path d="M20.1372 1.23596H18.5985V3.57751H17.4612V5.04934H18.5985V10H20.1372V5.04934H21.2746V3.57751H20.1372V1.23596Z" fill="#17313B"/>
<path d="M26.0915 8.05986C25.757 8.32746 25.2887 8.52817 24.8204 8.52817C23.75 8.52817 23.0141 7.72535 23.0141 6.65493C23.0141 5.58451 23.75 4.84859 24.8204 4.84859C25.2887 4.84859 25.757 4.98239 26.0915 5.3169L26.2922 5.51761L27.3627 4.51409L27.0951 4.31338C26.4929 3.77817 25.6901 3.44366 24.8204 3.44366C22.9472 3.44366 21.5422 4.84859 21.5422 6.72183C21.5422 8.59507 22.9472 10 24.8204 10C25.6901 10 26.4929 9.66549 27.0951 9.13028L27.3627 8.92957L26.2922 7.85915L26.0915 8.05986Z" fill="#17313B"/>
<path d="M32.7817 4.11268C32.3134 3.64437 31.8451 3.44366 31.1092 3.44366C30.574 3.44366 30.0388 3.57746 29.6374 3.97887V0.5H28.0986V10H29.6374V6.45423C29.6374 4.9824 30.6409 4.84859 31.0423 4.84859C31.9789 4.84859 31.912 5.71831 31.912 6.18662V9.9331H33.4507V6.25352C33.4507 5.3838 33.25 4.58099 32.7817 4.11268Z" fill="#17313B"/>
<path d="M24.7535 7.79227C25.3447 7.79227 25.824 7.31303 25.824 6.72185C25.824 6.13067 25.3447 5.65143 24.7535 5.65143C24.1624 5.65143 23.6831 6.13067 23.6831 6.72185C23.6831 7.31303 24.1624 7.79227 24.7535 7.79227Z" fill="#EF4335"/>
<path d="M6.55634 7.65845C6.02113 8.19366 5.21831 8.52817 4.34859 8.52817C2.67606 8.52817 1.47183 7.19014 1.47183 5.3838C1.47183 3.57747 2.67606 2.23944 4.41549 2.23944C5.21831 2.23944 6.02113 2.57395 6.62324 3.17606L6.82395 3.37676L7.82747 2.37324L7.62676 2.17254C6.75704 1.30282 5.61972 0.834511 4.41549 0.834511C1.87324 0.767609 0 2.77465 0 5.3838C0 7.99296 1.87324 10 4.34859 10C5.55282 10 6.75704 9.53169 7.55986 8.66197L7.76057 8.46127L6.75704 7.45775L6.55634 7.65845Z" fill="#17313B"/>
</svg>
