<svg width="42" height="38" viewBox="0 0 42 38" fill="none" xmlns="http://www.w3.org/2000/svg">
<path d="M41.9922 13.0455L41.9844 11.8322L20.9922 0.632202L0 11.8322V13.0455L6.89111 16.7478L7.54444 15.5344L1.78889 12.4389L20.9922 2.19554L40.2033 12.4389L31.3289 17.1989V22.7989H32.7056V18.0233L41.9922 13.0455Z" fill="#0048D4"/>
<path d="M12.88 14.4455L12.5766 13.1C11.5888 13.3255 10.64 13.5744 9.76884 13.8466L9.28662 13.9944V26.2133H12.7322V24.8366H10.6633V15.0211C11.3633 14.8111 12.11 14.6244 12.88 14.4455Z" fill="#0048D4"/>
<path d="M28.5755 17.261H27.1989V24.8366H16.17V13.8699C21.5055 13.1699 26.8333 13.621 31.8111 15.161L32.2155 13.8466C27.1055 12.2677 21.6377 11.7933 16.1622 12.4855V7.12659H14.7855V30.421C14.1244 30.5533 13.5255 30.8799 13.0355 31.3621C12.3822 32.0155 12.0244 32.8788 12.0244 33.7966V37.2421H18.9155V33.7966H17.5389V35.8655H13.4011V33.7966C13.4011 33.2444 13.6189 32.7233 14.0077 32.3344C14.3966 31.9455 14.9177 31.7277 15.47 31.7277H16.1622V26.2133H32.0055V24.8366H28.56V17.261H28.5755Z" fill="#0048D4"/>
</svg>
