<svg width="16" height="16" viewBox="0 0 16 16" fill="none" xmlns="http://www.w3.org/2000/svg">
<path fill-rule="evenodd" clip-rule="evenodd" d="M14.6667 2.06813V13.9282C14.6667 14.336 14.3364 14.6634 13.9316 14.6634H10.5328V9.50265H12.2649L12.5239 7.49075H10.5298V6.20503C10.5298 5.6217 10.6905 5.22587 11.5268 5.22587H12.5923V3.42527C12.4078 3.40146 11.7768 3.34491 11.0387 3.34491C9.50302 3.34491 8.44945 4.28241 8.44945 6.00563V7.49075H6.71135V9.50265H8.44945V14.6663H2.06849C1.66373 14.6663 1.33337 14.336 1.33337 13.9312V2.06813C1.33337 1.66336 1.66373 1.33301 2.06849 1.33301H13.9286C14.3364 1.33301 14.6667 1.66336 14.6667 2.06813Z" fill="#AEAEB2"/>
</svg>
