<svg width="36" height="36" viewBox="0 0 36 36" fill="none" xmlns="http://www.w3.org/2000/svg">
<path d="M30.3048 17.46H28.0898H23.6598H20.5598V18.345H23.6398C23.4248 21.165 21.1698 23.42 18.3498 23.635V20.555H17.4648V30.3H18.3498V28.065C23.6148 27.835 27.8448 23.605 28.0698 18.345H30.3048V17.46ZM18.3448 27.19V24.53C21.6548 24.31 24.3098 21.655 24.5298 18.345H27.1898C26.9698 23.12 23.1198 26.965 18.3448 27.19Z" fill="#0048D4"/>
<path d="M18.345 12.16C20.69 12.345 22.74 13.975 23.42 16.255L24.27 16C23.48 13.35 21.08 11.455 18.35 11.27V8.61C22.645 8.815 26.265 11.945 27.045 16.21L27.915 16.05C27.055 11.365 23.065 7.94 18.345 7.735V5.5H17.46V15.245H18.345V12.16Z" fill="#0048D4"/>
<path d="M11.5352 16.005L12.3852 16.26C12.9402 14.39 14.3902 12.945 16.2552 12.39L16.0002 11.54C13.8502 12.18 12.1802 13.85 11.5352 16.005Z" fill="#0048D4"/>
<path d="M16.2101 8.75989L16.0501 7.88989C11.9301 8.64989 8.65014 11.9249 7.89014 16.0499L8.76014 16.2099C9.45514 12.4449 12.4451 9.45489 16.2101 8.75989Z" fill="#0048D4"/>
<path d="M16.005 24.2651L16.26 23.4151C13.98 22.7351 12.35 20.6851 12.165 18.3401H15.245V17.4551H12.145H7.715H5.5V18.3401H7.735C7.94 23.0601 11.37 27.0451 16.05 27.9101L16.21 27.0401C11.945 26.2551 8.815 22.6351 8.61 18.3451H11.27C11.46 21.0801 13.35 23.4751 16.005 24.2651Z" fill="#0048D4"/>
</svg>
