<svg width="28" height="41" viewBox="0 0 28 41" fill="none" xmlns="http://www.w3.org/2000/svg">
<path d="M13.8252 26.4197H1.22189L0.597656 25.4083L13.1931 0.209442L14.4495 0.833691L2.35185 25.0211H13.8252V26.4197Z" fill="#0048D4"/>
<path d="M16.899 24.6339L15.6426 24.0018L17.2388 20.8173H8.92609L8.29395 19.8059L10.3958 15.6021L11.6443 16.2343L10.056 19.4187H18.3687L19.0009 20.4302L16.899 24.6339Z" fill="#0048D4"/>
<path d="M25.0222 39.0151H20.123V40.4137H25.0222V39.0151Z" fill="#0048D4"/>
<path d="M7.51972 39.0151H2.62061V40.4137H7.51972V39.0151Z" fill="#0048D4"/>
<path d="M4.46249 33.5045L3.76318 34.7157L8.00582 37.1653L8.70513 35.9541L4.46249 33.5045Z" fill="#0048D4"/>
<path d="M8.81729 29.6618L7.60596 30.3608L10.0545 34.6039L11.2659 33.9049L8.81729 29.6618Z" fill="#0048D4"/>
<path d="M23.164 33.5298L18.9224 35.9814L19.6222 37.1923L23.8639 34.7407L23.164 33.5298Z" fill="#0048D4"/>
<path d="M25.2908 15.2228L14.5207 36.7552V28.5216H13.1221V39.7184L14.4496 40.0266L27.045 14.8357L26.4208 13.8163H14.5207V7.51859H13.1221V15.2228H25.2908Z" fill="#0048D4"/>
</svg>
