<svg width="16" height="16" viewBox="0 0 16 16" fill="none" xmlns="http://www.w3.org/2000/svg">
<path fill-rule="evenodd" clip-rule="evenodd" d="M4.31783 14.6634H1.55357V5.76358H4.31783V14.6634ZM2.93421 4.54955C2.05048 4.54955 1.33337 3.81757 1.33337 2.93384C1.33337 2.05011 2.05048 1.33301 2.93421 1.33301C3.81794 1.33301 4.53504 2.05011 4.53504 2.93384C4.53504 3.81757 3.81794 4.54955 2.93421 4.54955ZM14.6637 14.6634H11.9054V10.331C11.9054 9.29851 11.8846 7.9744 10.4682 7.9744C9.03105 7.9744 8.81086 9.09618 8.81086 10.2566V14.6634H6.04957V5.76359H8.70077V6.9776H8.73945C9.10841 6.27835 10.01 5.54042 11.3549 5.54042C14.1519 5.54042 14.6667 7.38227 14.6667 9.7746V14.6634H14.6637Z" fill="#AEAEB2"/>
</svg>
