<svg width="30" height="39" viewBox="0 0 30 39" fill="none" xmlns="http://www.w3.org/2000/svg">
<path d="M15.5211 25.0589L15 25.1911V30.6433H13.6233V32.02H16.3767V26.21C16.7733 26.0389 17.1311 25.7978 17.4344 25.4945C18.0878 24.8411 18.4456 23.9778 18.4456 23.06C18.4456 22.1422 18.0878 21.2789 17.4344 20.6256C16.0967 19.28 13.9111 19.28 12.5656 20.6256C11.9122 21.2789 11.5544 22.1422 11.5544 23.06C11.5544 23.9778 11.9122 24.8489 12.5656 25.4945L13.5378 24.5222C13.1489 24.1333 12.9311 23.6122 12.9311 23.06C12.9311 22.5078 13.1489 21.9867 13.5378 21.5978C14.3233 20.82 15.6767 20.82 16.4622 21.5978C16.8511 21.9867 17.0689 22.5078 17.0689 23.06C17.0689 23.6122 16.8511 24.1333 16.4622 24.5222C16.2133 24.7867 15.8944 24.9578 15.5211 25.0589Z" fill="#0048D4"/>
<path d="M29.4668 18.93H28.0901V32.7122H29.4668V18.93Z" fill="#0048D4"/>
<path d="M1.91011 34.68V16.9622C10.4968 14.0378 19.9857 14.0922 28.549 17.1256L29.0079 15.8267C21.3779 13.1278 13.0479 12.7233 5.20011 14.59V11.3545C5.20011 6.03445 9.52456 1.71001 14.8446 1.71001C20.1646 1.71001 24.489 6.03445 24.489 11.3545V12.7311H25.8657V11.3545C25.8657 5.28001 20.919 0.333344 14.8446 0.333344C8.77011 0.333344 3.82345 5.28001 3.82345 11.3545V14.94C2.87456 15.2045 1.92567 15.4922 0.992336 15.8189L0.533447 15.9822V35.6522L0.992336 35.8156C5.49567 37.41 10.209 38.2189 15.0001 38.2189C19.7912 38.2189 24.5046 37.41 29.0079 35.8156L28.549 34.5167C19.9857 37.55 10.5046 37.6045 1.91011 34.68Z" fill="#0048D4"/>
<path d="M10.4656 6.9678L11.4378 7.94002C12.3478 7.03002 13.5611 6.52446 14.8445 6.52446C17.5045 6.52446 19.6667 8.68669 19.6667 11.3467H21.0434C21.0434 7.92446 18.2589 5.1478 14.8445 5.1478C13.1956 5.15557 11.64 5.80113 10.4656 6.9678Z" fill="#0048D4"/>
</svg>
