<svg width="28" height="38" viewBox="0 0 28 38" fill="none" xmlns="http://www.w3.org/2000/svg">
<path d="M2.10371 4.11698C9.93439 1.54099 18.5711 1.5963 26.378 4.27501L26.8363 2.9475C18.5869 0.11076 9.43657 0.11076 1.17919 2.9475L0.705078 3.11345V36.5143L1.6296 37.1781C9.58671 34.4441 18.413 34.4441 26.3701 37.1781L26.8284 35.8506C18.8871 33.1166 10.1003 33.0138 2.10371 35.5424V4.11698Z" fill="#3A96FF"/>
<path d="M27.3024 6.40851H25.9038V33.7092H27.3024V6.40851Z" fill="#3A96FF"/>
<path d="M11.7517 26.084L10.6533 26.9611L13.4585 30.4616H14.5489L20.1513 23.4606L19.0529 22.5835L14.0037 28.9049L11.7517 26.084Z" fill="#3A96FF"/>
<path d="M8.29875 8.2417C7.2004 8.39974 6.29169 8.56567 5.4541 8.75531L5.75437 10.1223C6.56036 9.94058 7.43744 9.79045 8.50418 9.63241L8.29875 8.2417Z" fill="#3A96FF"/>
<path d="M14.0039 7.815C13.1426 7.815 12.2418 7.85452 11.1514 7.93354L11.2541 9.33215C12.305 9.25313 13.1821 9.22152 14.0039 9.22152C16.7617 9.22152 19.5431 9.5297 22.2534 10.1302L22.5537 8.76322C19.7406 8.13107 16.8644 7.815 14.0039 7.815Z" fill="#3A96FF"/>
<path d="M8.29875 13.1408C7.2004 13.2988 6.29169 13.4648 5.4541 13.6544L5.75437 15.0214C6.56036 14.8397 7.43744 14.6896 8.50418 14.5315L8.29875 13.1408Z" fill="#3A96FF"/>
<path d="M14.0039 12.7141C13.1426 12.7141 12.2418 12.7536 11.1514 12.8326L11.2541 14.2313C12.305 14.1522 13.1821 14.1206 14.0039 14.1206C16.7617 14.1206 19.5431 14.4288 22.2534 15.0293L22.5537 13.6623C19.7406 13.0302 16.8644 12.7141 14.0039 12.7141Z" fill="#3A96FF"/>
<path d="M5.75437 19.9206C6.56036 19.7388 7.43744 19.5887 8.50418 19.4307L8.29875 18.0479C7.2004 18.2059 6.29169 18.3718 5.4541 18.5615L5.75437 19.9206Z" fill="#3A96FF"/>
<path d="M22.5537 18.5536C19.7406 17.9293 16.8644 17.6133 14.0039 17.6133C13.1426 17.6133 12.2418 17.6528 11.1514 17.7318L11.2541 19.1304C12.305 19.0514 13.1821 19.0198 14.0039 19.0198C16.7617 19.0198 19.5431 19.328 22.2534 19.9285L22.5537 18.5536Z" fill="#3A96FF"/>
</svg>
