<svg width="27" height="38" viewBox="0 0 27 38" fill="none" xmlns="http://www.w3.org/2000/svg">
<path d="M26.9655 5.49336H25.5889V15.83H26.9655V5.49336Z" fill="#0048D4"/>
<path d="M26.5067 18.2256C23.3567 17.1445 20.0512 16.4678 16.6834 16.2267L16.5823 17.6034C19.6623 17.8211 22.6878 18.42 25.5889 19.3767V23.2422C22.7112 22.3322 19.7245 21.7411 16.6834 21.5234L16.5823 22.9C19.6389 23.1178 22.6412 23.7245 25.5189 24.6656C25.3867 25.91 25.0134 27.1 24.4378 28.1811C21.9178 27.4734 19.3123 27.0067 16.6756 26.82L16.5745 28.1967C18.9778 28.3678 21.3578 28.7878 23.6678 29.41C22.8823 30.46 21.8945 31.37 20.7201 32.0467L13.8678 36.0134L7.01561 32.0467C4.02117 30.3278 2.1545 27.1234 2.1545 23.6778V19.3922C5.71672 18.2178 9.41894 17.5956 13.1756 17.5256V33.3611H14.5523V3.72003H13.1756V5.56336C10.0956 5.6178 7.03117 6.02225 4.0445 6.80003L4.3945 8.13003C7.2645 7.38336 10.2201 6.98669 13.1756 6.93225V10.8445C10.0956 10.8989 7.02339 11.3034 4.0445 12.0811L4.3945 13.4111C7.2645 12.6645 10.2123 12.2756 13.1756 12.2211V16.1256C9.41894 16.1878 5.71672 16.7945 2.1545 17.9222V3.5178C9.86228 0.982248 18.3634 1.03669 26.0478 3.67336L26.4989 2.37447C18.3789 -0.417752 9.37228 -0.417752 1.2445 2.37447L0.777832 2.5378V23.6622C0.777832 27.5978 2.90116 31.2611 6.32339 33.2211L13.8678 37.5845L21.4045 33.2211C24.8267 31.2611 26.9578 27.59 26.9578 23.6622V18.3811L26.5067 18.2256Z" fill="#0048D4"/>
</svg>
