<svg width="40" height="40" viewBox="0 0 40 40" fill="none" xmlns="http://www.w3.org/2000/svg">
<path d="M39.1413 19.16H35.6957H28.8046H23.9824V20.5367H28.7735C28.4391 24.9233 24.9313 28.4311 20.5446 28.7656V23.9744H19.168V39.1333H20.5446V35.6567C28.7346 35.2989 35.3146 28.7189 35.6646 20.5367H39.1413V19.16ZM20.5369 34.2956V30.1578C25.6857 29.8156 29.8157 25.6856 30.158 20.5367H34.2957C33.9535 27.9644 27.9646 33.9456 20.5369 34.2956Z" fill="#0048D4"/>
<path d="M20.5368 10.9156C24.1846 11.2033 27.3735 13.7389 28.4313 17.2856L29.7535 16.8889C28.5246 12.7667 24.7913 9.81889 20.5446 9.53111V5.39333C27.2257 5.71222 32.8568 10.5811 34.0702 17.2156L35.4235 16.9667C34.0857 9.67889 27.879 4.35111 20.5368 4.03222V0.555557H19.1602V15.7144H20.5368V10.9156Z" fill="#0048D4"/>
<path d="M9.94336 16.8967L11.2656 17.2933C12.1289 14.3844 14.3845 12.1367 17.2856 11.2733L16.8889 9.95111C13.5445 10.9467 10.9467 13.5444 9.94336 16.8967Z" fill="#0048D4"/>
<path d="M17.2157 5.62666L16.9668 4.27333C10.5579 5.45555 5.45566 10.55 4.27344 16.9667L5.62677 17.2156C6.70788 11.3589 11.359 6.70777 17.2157 5.62666Z" fill="#0048D4"/>
<path d="M16.8968 29.7456L17.2934 28.4233C13.7468 27.3656 11.2112 24.1767 10.9234 20.5289H15.7146V19.1522H10.8923H4.00122H0.555664V20.5289H4.03233C4.35122 27.8711 9.68678 34.07 16.9668 35.4156L17.2157 34.0622C10.5812 32.8411 5.71233 27.21 5.39344 20.5367H9.53122C9.82678 24.7911 12.7668 28.5167 16.8968 29.7456Z" fill="#0048D4"/>
</svg>
