<svg width="16" height="16" viewBox="0 0 16 16" fill="none" xmlns="http://www.w3.org/2000/svg">
<path fill-rule="evenodd" clip-rule="evenodd" d="M13.2962 5.3658C13.3046 5.48424 13.3046 5.60271 13.3046 5.72114C13.3046 9.33366 10.5551 13.4961 5.52967 13.4961C3.98143 13.4961 2.5432 13.0477 1.33337 12.2694C1.55335 12.2948 1.76483 12.3032 1.99327 12.3032C3.27075 12.3032 4.44675 11.8718 5.38584 11.1357C4.18448 11.1103 3.1777 10.3235 2.83083 9.24061C3.00005 9.26598 3.16924 9.2829 3.34692 9.2829C3.59226 9.2829 3.83763 9.24905 4.06604 9.18986C2.81393 8.93603 1.87481 7.83621 1.87481 6.50794V6.47412C2.23859 6.67716 2.66163 6.80407 3.11 6.82097C2.37395 6.33026 1.89174 5.49271 1.89174 4.54515C1.89174 4.03754 2.02707 3.57223 2.26398 3.16613C3.60916 4.82434 5.63118 5.90724 7.8985 6.0257C7.85621 5.82266 7.83082 5.61117 7.83082 5.39966C7.83082 3.89372 9.04911 2.66699 10.5635 2.66699C11.3503 2.66699 12.0609 2.99694 12.5601 3.52994C13.1777 3.4115 13.7699 3.18306 14.2945 2.87004C14.0914 3.50457 13.6599 4.03757 13.0931 4.37596C13.643 4.31676 14.176 4.16445 14.6667 3.95296C14.2945 4.4944 13.8292 4.97661 13.2962 5.3658Z" fill="#AEAEB2"/>
</svg>
