<svg width="608" height="608" viewBox="0 0 608 608" fill="none" xmlns="http://www.w3.org/2000/svg">
<rect opacity="0.1" x="104" y="104" width="400" height="400" fill="#0076FE"/>
<path d="M240.377 204.542C235.767 203.307 231.072 201.213 226.34 198.285C218.446 193.392 210.924 186.479 204 177.713C197.299 169.255 191.46 159.473 186.631 148.655C181.825 137.879 178.29 126.654 176.142 115.307C173.933 103.637 173.289 92.3987 174.232 81.8914C175.172 71.4776 177.611 62.4188 181.491 54.9704C185.208 47.8319 190.077 42.4614 195.964 39.0122C201.787 35.5928 208.311 34.2328 215.356 34.967C222.545 35.7158 229.967 38.6227 237.439 43.6151C244.836 48.552 251.867 55.2745 258.34 63.5778C264.576 71.5825 270.075 80.7431 274.666 90.8027C279.27 100.901 282.763 111.443 285.05 122.145C287.429 133.307 288.381 144.192 287.889 154.491C287.396 164.919 285.435 174.176 282.075 181.999C278.778 189.674 274.264 195.658 268.669 199.785C262.989 203.973 256.498 206.013 249.384 205.872C246.425 205.798 243.419 205.357 240.377 204.542ZM221.171 37.2197C219.172 36.6838 217.183 36.3159 215.209 36.1048C208.394 35.397 202.097 36.7116 196.476 40.0086C190.776 43.3435 186.05 48.5636 182.441 55.5076C178.631 62.8216 176.234 71.7266 175.313 81.981C174.379 92.3729 175.017 103.504 177.211 115.064C179.348 126.326 182.851 137.459 187.622 148.155C192.405 158.89 198.202 168.578 204.852 176.976C211.712 185.642 219.13 192.48 226.92 197.299C234.621 202.07 242.186 204.568 249.422 204.717C256.298 204.864 262.557 202.892 268.039 198.851C273.464 194.855 277.847 189.024 281.07 181.541C284.37 173.855 286.293 164.741 286.793 154.456C287.28 144.262 286.332 133.484 283.975 122.41C281.709 111.796 278.241 101.332 273.672 91.3133C269.118 81.3227 263.666 72.2449 257.477 64.3121C251.072 56.0973 244.12 49.4551 236.82 44.5793C231.55 41.0484 226.308 38.5959 221.171 37.2197Z" fill="#0076FE"/>
<path d="M470.603 143.998C467.522 135.792 461.753 128.736 453.481 123.024C445.17 117.288 434.849 113.287 422.789 111.103C411.148 108.996 398.449 108.69 385.05 110.197C371.709 111.696 358.419 114.904 345.559 119.746C332.348 124.718 320.222 131.157 309.529 138.899C298.961 146.556 290.419 155.028 284.159 164.075C278.178 172.714 274.518 181.493 273.281 190.191C272.05 198.784 273.258 206.866 276.862 214.212C280.539 221.708 286.585 228.107 294.825 233.223C300.743 236.904 307.564 239.78 315.184 241.821C318.068 242.594 321.063 243.244 324.158 243.779C335.042 245.636 346.861 245.942 359.257 244.684C371.698 243.426 384.164 240.645 396.326 236.428C409.023 232.025 420.854 226.225 431.515 219.192C442.316 212.056 451.295 204.056 458.228 195.401C465.03 186.899 469.581 178.123 471.737 169.319C473.924 160.357 473.544 151.838 470.603 143.998Z" fill="#0076FE"/>
<path d="M434.853 432.472C440.06 434.762 445.583 436.842 451.263 438.671C456.933 440.496 462.856 442.095 468.883 443.427C474.922 444.763 481.194 445.855 487.517 446.678L490.591 447.078L425.444 485.352L425.392 427.912C423.502 426.923 421.653 425.91 419.868 424.867C415.158 422.11 410.722 419.132 406.677 415.999C402.632 412.867 398.902 409.525 395.608 406.076C394.303 404.714 393.087 403.317 391.898 401.903C389.551 401.145 387.19 400.277 384.826 399.29C380.349 397.431 375.786 395.137 371.254 392.475C369.626 391.521 367.994 390.495 366.358 389.444L314.007 422.907L426.009 486.316L494.007 446.368L487.674 445.543C481.373 444.725 475.135 443.631 469.128 442.304C463.143 440.983 457.241 439.389 451.603 437.573C445.964 435.756 440.473 433.684 435.294 431.413C431.884 429.911 428.583 428.297 425.392 426.606L425.395 427.901C428.45 429.509 431.602 431.048 434.853 432.472Z" fill="#0076FE"/>
<path d="M311.81 422.977L247.861 463.856L254.078 464.651C260.327 465.454 266.542 466.507 272.547 467.799C278.52 469.081 284.415 470.614 290.075 472.354C295.713 474.088 301.193 476.075 306.369 478.227C307.73 478.792 309.073 479.375 310.401 479.978L309.312 510.86L313.214 510.022C317.476 509.103 321.929 508.649 326.443 508.645C330.911 508.642 335.539 509.093 340.198 509.977C344.822 510.863 349.575 512.195 354.307 513.945C354.472 514.002 354.632 514.08 354.797 514.136C356.474 516.633 357.922 519.188 359.11 521.743L360.533 524.808L368.22 520.287C368.337 520.354 368.468 520.412 368.586 520.479C373.311 523.052 378.067 526.057 382.708 529.408C387.31 532.736 391.906 536.464 396.354 540.493C400.784 544.505 405.166 548.905 409.367 553.562C413.578 558.222 417.692 563.245 421.601 568.483L425.521 573.724L425.45 487.308L311.81 422.977ZM306.79 477.162C301.574 474.988 296.06 473.004 290.403 471.253C288.027 470.522 285.618 469.83 283.177 469.175C279.766 468.262 276.291 467.424 272.792 466.675C266.755 465.376 260.519 464.317 254.236 463.516L251.103 463.124L312.373 423.952L310.439 478.741C309.229 478.204 308.016 477.679 306.79 477.162ZM361.005 523.216L360.083 521.226C359.08 519.074 357.892 516.943 356.552 514.829C360.036 516.222 363.542 517.833 367.03 519.674L361.005 523.216Z" fill="#0076FE"/>
<path d="M407.34 415.082C411.349 418.181 415.746 421.137 420.417 423.872C422.027 424.809 423.698 425.728 425.389 426.617L425.368 404.255L421.966 404.827C418.279 405.452 414.375 405.666 410.369 405.463C406.351 405.258 402.162 404.642 397.923 403.623C396.588 403.301 395.247 402.918 393.887 402.519C394.7 403.443 395.526 404.359 396.39 405.261C399.651 408.666 403.345 411.975 407.34 415.082Z" fill="#0076FE"/>
<path d="M379.466 381.066L380.462 383.452C382.134 387.444 384.268 391.394 386.817 395.185C388.348 397.467 390.062 399.704 391.908 401.906C392.573 402.119 393.241 402.322 393.908 402.524C391.627 399.923 389.557 397.25 387.727 394.523C385.219 390.79 383.123 386.908 381.479 382.983L379.987 379.417L365.326 388.791C365.672 389.013 366.019 389.236 366.355 389.455L379.466 381.066Z" fill="#0076FE"/>
<path d="M312.422 422.588L365.318 388.777C362.73 387.071 360.136 385.258 357.585 383.326C353.073 379.916 348.571 376.132 344.211 372.067C339.823 367.984 335.498 363.54 331.342 358.883C327.171 354.199 323.092 349.174 319.219 343.968L315.386 338.821L312.422 422.588Z" fill="#0076FE"/>
<path d="M155.41 329.542L190.798 331.266L126.783 229.082L155.41 329.542Z" fill="#0076FE"/>
<path d="M128.972 230.469L192.166 331.339L306.2 336.901L215.189 368.093L192.166 331.339L190.798 331.267L214.492 369.095L214.724 369.451L309.115 337.094L128.972 230.469Z" fill="#0076FE"/>
<path d="M309.691 336.118L289.861 236.131L245.62 233.977L226.468 203.405L127.36 228.189L309.691 336.118ZM244.249 233.916L131.126 228.409L225.951 204.703L244.249 233.916Z" fill="#0076FE"/>
</svg>
