<svg width="36" height="36" viewBox="0 0 36 36" fill="none" xmlns="http://www.w3.org/2000/svg">
<path d="M27.2941 11.6716C23.3059 8.34809 20.6471 11.0069 17.9883 11.0069C15.3295 11.0069 12.6707 8.34807 8.68245 11.6716C4.69425 14.9951 4.69419 26.295 7.35302 26.9597C9.54175 27.5069 10.6765 22.3068 14 21.6421C14.5573 21.5307 16.6588 21.6421 17.9882 21.6421C19.3176 21.6421 21.4833 21.5435 21.9765 21.6421C25.3 22.3068 26.6086 27.4635 28.6235 26.9597C31.2823 26.295 31.2823 14.9951 27.2941 11.6716Z" stroke="#0048D4"/>
<path d="M11.6736 13.6657V15.3274H10.0118V17.3215H11.6736V18.9833H13.6677V17.3215H15.3295V15.3274H13.6677V13.6657H11.6736Z" stroke="#0048D4" stroke-linejoin="bevel"/>
<circle cx="23.7533" cy="14.3893" r="1.3294" transform="rotate(15 23.7533 14.3893)" stroke="#0048D4"/>
<circle cx="24.7848" cy="18.2441" r="1.3294" transform="rotate(15 24.7848 18.2441)" stroke="#0048D4"/>
<circle cx="20.9325" cy="17.2118" r="1.3294" transform="rotate(15 20.9325 17.2118)" stroke="#0048D4"/>
</svg>
