<svg width="36" height="36" viewBox="0 0 36 36" fill="none" xmlns="http://www.w3.org/2000/svg">
<path d="M8 10.6667L18 6L28 10.6667V16.6667C28 27.3333 18 30 18 30C18 30 8 27.3333 8 16.6667V10.6667Z" stroke="#0048D4"/>
<path d="M22.5463 18.5989C22.5708 18.4033 22.5891 18.2077 22.5891 18C22.5891 17.7922 22.5708 17.5966 22.5463 17.4011L23.8358 16.3927C23.9519 16.3011 23.9824 16.1361 23.9091 16.0016L22.6869 13.8872C22.6319 13.7894 22.528 13.7344 22.418 13.7344C22.3813 13.7344 22.3446 13.7405 22.3141 13.7527L20.7924 14.3639C20.4746 14.1194 20.1324 13.9177 19.7596 13.765L19.5274 12.1455C19.5091 11.9989 19.3808 11.8889 19.228 11.8889H16.7835C16.6308 11.8889 16.5024 11.9989 16.4841 12.1455L16.2519 13.765C15.8791 13.9177 15.5369 14.1255 15.2191 14.3639L13.6974 13.7527C13.6608 13.7405 13.6241 13.7344 13.5874 13.7344C13.4835 13.7344 13.3797 13.7894 13.3247 13.8872L12.1024 16.0016C12.023 16.1361 12.0597 16.3011 12.1758 16.3927L13.4652 17.4011C13.4408 17.5966 13.4224 17.7983 13.4224 18C13.4224 18.2016 13.4408 18.4033 13.4652 18.5989L12.1758 19.6072C12.0597 19.6989 12.0291 19.8639 12.1024 19.9983L13.3247 22.1127C13.3797 22.2105 13.4835 22.2655 13.5935 22.2655C13.6302 22.2655 13.6669 22.2594 13.6974 22.2472L15.2191 21.6361C15.5369 21.8805 15.8791 22.0822 16.2519 22.235L16.4841 23.8544C16.5024 24.0011 16.6308 24.1111 16.7835 24.1111H19.228C19.3808 24.1111 19.5091 24.0011 19.5274 23.8544L19.7596 22.235C20.1324 22.0822 20.4746 21.8744 20.7924 21.6361L22.3141 22.2472C22.3508 22.2594 22.3874 22.2655 22.4241 22.2655C22.528 22.2655 22.6319 22.2105 22.6869 22.1127L23.9091 19.9983C23.9824 19.8639 23.9519 19.6989 23.8358 19.6072L22.5463 18.5989Z" stroke="#0048D4"/>
<ellipse cx="18.0044" cy="18" rx="2.22222" ry="2.22222" stroke="#0048D4"/>
</svg>
