<svg width="36" height="36" viewBox="0 0 36 36" fill="none" xmlns="http://www.w3.org/2000/svg">
<path d="M16 18H18M20 18H18M18 18V26" stroke="#0048D4"/>
<path d="M10.8586 9C12.6736 7.14864 15.2027 6 18.0001 6C23.5229 6 28.0001 10.4772 28.0001 16C28.0001 18.7974 26.8514 21.3265 25.0001 23.1414" stroke="#0048D4"/>
<path d="M8 16C8 18.7974 9.14864 21.3265 11 23.1414" stroke="#0048D4"/>
<path d="M21 25C21 21 24 20 24 16C24 12.6863 21.3137 10 18 10C14.6863 10 12 12.6863 12 16C12 20 15 21 15 25V27C15.9589 27.2611 16.9641 27.4 18 27.4C19.0359 27.4 20.0411 27.2611 21 27" stroke="#0048D4"/>
<path d="M20.5 29.25C19.6888 29.3962 18.8533 29.4726 18 29.4726C17.1467 29.4726 16.3112 29.3962 15.5 29.25" stroke="#0048D4"/>
<path d="M21 16C21 14.3431 19.6569 13 18 13C17.1115 13 16.3132 13.3863 15.7639 14" stroke="#0048D4"/>
</svg>
