<svg xmlns="http://www.w3.org/2000/svg" width="507" height="588" viewBox="0 0 507 588" fill="none">
    <g opacity="0.4">
        <path d="M599.534 71.5453L446.617 64.4432L425.089 129.369L373.302 146.511L372.751 146.686L367.296 303.52L599.534 71.5453ZM374.397 147.913L424.439 131.351L369.164 298.067L374.397 147.913Z" fill="currentColor"/>
        <path d="M371.207 301.994L543.494 244.989L542.845 246.972L368.246 304.742L524.898 299.31L525.473 299.283L542.829 246.981L607.205 225.684L607.802 225.482L600.712 72.7373L371.207 301.994ZM606.086 224.275L543.494 244.989L599.245 76.9418L606.086 224.275Z" fill="currentColor"/>
        <path d="M183.087 488.393C175.819 471.672 171.104 453.051 169.041 433.019C167.026 413.53 167.628 393.628 170.809 373.886C173.284 358.499 177.243 343.882 182.581 330.24C169.99 336.899 158.946 344.72 149.721 353.607C138.267 364.635 130.209 376.674 125.748 389.362C121.392 401.807 120.656 414.378 123.561 426.721C126.499 439.227 133.019 450.907 142.946 461.392C153.255 472.288 166.797 481.439 183.186 488.601L183.087 488.393Z" fill="currentColor"/>
        <path d="M394.957 343.871C383.938 333.935 370.067 325.767 353.785 319.5L185.671 487.43L183.603 489.499C190.705 505.543 199.738 518.823 210.484 528.959C220.994 538.863 232.673 545.387 245.19 548.314C257.557 551.225 270.142 550.491 282.601 546.146C287.219 544.538 291.737 542.438 296.157 539.887C303.926 535.401 311.357 529.483 318.407 522.198C327.311 512.967 335.158 501.905 341.821 489.288C345.787 487.751 349.683 486.093 353.468 484.314C358.008 482.181 362.365 479.91 366.525 477.508C378.301 470.709 388.534 462.827 397.019 454.001C408.462 442.105 416.044 429.242 419.572 415.75C422.928 402.845 422.443 389.96 418.097 377.453C413.835 365.162 406.041 353.852 394.957 343.871ZM317.177 521.056C306.321 532.309 294.492 540.217 282.042 544.577C269.909 548.815 257.638 549.53 245.585 546.702C233.363 543.829 221.931 537.448 211.638 527.743C201.22 517.928 192.433 505.075 185.467 489.583C201.724 496.373 219.702 500.847 238.997 502.832C258.505 504.835 278.43 504.238 298.2 501.044C312.676 498.709 326.497 495.063 339.44 490.215C333.028 501.995 325.59 512.353 317.177 521.056Z" fill="currentColor"/>
        <path d="M184.89 329.049C179.237 343.097 175.054 358.209 172.479 374.163C169.321 393.77 168.725 413.505 170.724 432.861C172.725 452.257 177.242 470.322 184.151 486.599L352.564 318.374C346.302 302.089 338.105 288.244 328.171 277.254C318.169 266.181 306.867 258.402 294.531 254.13C282.017 249.797 269.105 249.296 256.185 252.666C242.681 256.189 229.796 263.751 217.883 275.186C205.918 286.673 195.697 301.323 187.544 318.706C185.782 322.471 184.145 326.346 182.598 330.271C183.356 329.853 184.099 329.445 184.89 329.049ZM189.049 319.405C197.126 302.207 207.222 287.731 219.036 276.372C225.067 270.571 231.364 265.796 237.864 262.043C243.951 258.529 250.203 255.936 256.596 254.26C269.181 250.982 281.76 251.472 293.967 255.697C306.02 259.868 317.116 267.501 326.916 278.365C336.589 289.079 344.59 302.549 350.753 318.381C334.655 312.537 317.119 308.866 298.596 307.474C280.184 306.099 261.48 307.009 243.02 310.179C224.616 313.337 207.293 318.618 191.526 325.849C189.27 326.887 187.071 327.953 184.899 329.064C186.208 325.786 187.582 322.551 189.049 319.405Z" fill="currentColor"/>
        <path d="M614.639 57.6562L614.413 56.9117L589.577 -27.3935C590.044 -27.7853 590.503 -28.1924 590.97 -28.5841L615.708 55.4111L754.62 -83.3492L724.899 -199.954L723.92 -197.659C720.008 -188.401 715.736 -179.342 711.208 -170.725C706.608 -161.986 701.66 -153.533 696.475 -145.596C691.197 -137.502 685.589 -129.768 679.795 -122.638C674.865 -116.556 669.707 -110.831 664.433 -105.487L644.256 -110.624L643.364 -110.862L643.221 -109.945C642.341 -104.229 640.805 -98.377 638.645 -92.5111C637.073 -88.2055 635.109 -83.8365 632.852 -79.4813C629.036 -77.0136 625.185 -74.7492 621.334 -72.7297C614.661 -69.2429 607.871 -66.3809 601.134 -64.2409C594.451 -62.1121 587.689 -60.6499 581.052 -59.8903L580.063 -59.7669L589.584 -27.4176C586.476 -24.7482 583.286 -22.1134 579.974 -19.5501C572.763 -13.9216 564.965 -8.46284 556.832 -3.29964C548.798 1.78651 540.301 6.67177 531.554 11.1932C522.907 15.6768 513.841 19.8938 504.611 23.7574L502.427 24.6723L614.639 57.6562ZM681.084 -121.571C686.906 -128.758 692.56 -136.519 697.867 -144.669C703.079 -152.664 708.056 -161.174 712.677 -169.946C716.857 -177.894 720.817 -186.223 724.489 -194.732L753.016 -82.912L666.304 -105C671.376 -110.167 676.345 -115.722 681.084 -121.571ZM632.876 -79.4749C635.755 -81.3404 638.614 -83.2759 641.448 -85.3599C648.124 -90.2922 654.779 -95.9658 661.217 -102.226C662.301 -103.28 663.368 -104.364 664.45 -105.456L666.337 -104.979C665.032 -103.636 663.719 -102.308 662.395 -101.034C655.904 -94.7231 649.197 -88.999 642.46 -84.0314C638.77 -81.3107 635.02 -78.7997 631.267 -76.4702C631.793 -77.4658 632.335 -78.4704 632.876 -79.4749ZM582.235 -58.3352C588.664 -59.1374 595.19 -60.5853 601.632 -62.6362C608.455 -64.8052 615.345 -67.7049 622.11 -71.2446C625.148 -72.8355 628.191 -74.5926 631.212 -76.4589C630.834 -75.7724 630.486 -75.1036 630.099 -74.4323C626.541 -68.2681 622.274 -62.0607 617.431 -55.9683C612.455 -49.7177 606.767 -43.4633 600.517 -37.372C597.488 -34.4231 594.3 -31.504 590.991 -28.6171L582.235 -58.3352Z" fill="currentColor"/>
    </g>
</svg>