<svg xmlns="http://www.w3.org/2000/svg" width="507" height="624" viewBox="0 0 507 624" fill="none">
    <g opacity="0.4">
        <path d="M121.534 298.545L-31.3829 291.443L-52.9109 356.369L-104.698 373.511L-105.249 373.686L-110.704 530.52L121.534 298.545ZM-103.603 374.913L-53.5607 358.351L-108.836 525.067L-103.603 374.913Z" fill="currentColor"/>
        <path d="M-106.793 528.994L65.4942 471.989L64.8445 473.972L-109.754 531.742L46.8975 526.31L47.4732 526.283L64.8292 473.981L129.205 452.684L129.802 452.482L122.712 299.737L-106.793 528.994ZM128.086 451.275L65.4942 471.989L121.245 303.942L128.086 451.275Z" fill="currentColor"/>
        <path d="M136.639 284.656L136.413 283.912L111.577 199.606C112.044 199.215 112.503 198.808 112.97 198.416L137.708 282.411L276.62 143.651L246.899 27.0456L245.92 29.3405C242.008 38.5988 237.736 47.6579 233.208 56.2745C228.608 65.0138 223.66 73.4665 218.475 81.4042C213.197 89.4978 207.589 97.2323 201.795 104.362C196.865 110.444 191.707 116.168 186.432 121.513L166.256 116.375L165.364 116.138L165.221 117.055C164.341 122.771 162.805 128.623 160.645 134.489C159.073 138.794 157.109 143.163 154.852 147.519C151.036 149.986 147.185 152.251 143.334 154.27C136.661 157.757 129.871 160.619 123.134 162.759C116.451 164.888 109.689 166.35 103.052 167.11L102.063 167.233L111.584 199.582C108.476 202.252 105.286 204.887 101.974 207.45C94.763 213.078 86.9645 218.537 78.8322 223.7C70.798 228.786 62.3013 233.672 53.5537 238.193C44.9067 242.677 35.8405 246.894 26.6111 250.757L24.4273 251.672L136.639 284.656ZM203.084 105.429C208.906 98.2421 214.56 90.4811 219.866 82.3305C225.079 74.3358 230.056 65.8261 234.677 57.0538C238.857 49.1061 242.817 40.777 246.489 32.2678L275.016 144.088L188.304 121.999C193.376 116.833 198.345 111.278 203.084 105.429ZM154.876 147.525C157.755 145.66 160.614 143.724 163.448 141.64C170.124 136.708 176.779 131.034 183.217 124.774C184.301 123.72 185.368 122.636 186.45 121.544L188.337 122.021C187.032 123.364 185.719 124.692 184.395 125.966C177.904 132.277 171.196 138.001 164.46 142.969C160.77 145.689 157.02 148.2 153.267 150.53C153.793 149.534 154.335 148.53 154.876 147.525ZM104.235 168.665C110.664 167.862 117.189 166.415 123.632 164.364C130.455 162.195 137.345 159.295 144.11 155.755C147.148 154.164 150.191 152.407 153.212 150.541C152.834 151.228 152.486 151.896 152.099 152.568C148.541 158.732 144.274 164.939 139.431 171.032C134.455 177.282 128.767 183.537 122.517 189.628C119.488 192.577 116.3 195.496 112.991 198.383L104.235 168.665Z" fill="currentColor"/>
        <path d="M277.834 144.801L138.011 284.454L136.914 285.556L169.64 396.702L170.548 394.53C174.408 385.322 178.656 376.256 183.142 367.603C187.684 358.835 192.567 350.339 197.653 342.337C202.804 334.235 208.283 326.453 213.912 319.215C216.477 315.923 219.104 312.738 221.768 309.653L254.152 319.158L254.267 318.156C255.029 311.53 256.481 304.791 258.616 298.105C260.764 291.371 263.613 284.579 267.109 277.921C269.128 274.07 271.4 270.235 273.862 266.412C278.244 264.147 282.62 262.19 286.947 260.608C292.821 258.457 298.685 256.923 304.398 256.046L305.315 255.903L299.932 234.818C305.26 229.565 311.006 224.436 317.057 219.518C324.204 213.744 331.954 208.13 340.049 202.866C348 197.706 356.452 192.745 365.219 188.151C373.84 183.622 382.919 179.357 392.186 175.451L394.485 174.49L277.834 144.801ZM212.595 318.205C206.92 325.47 201.413 333.309 196.24 341.443C191.132 349.479 186.221 358.032 181.657 366.832C177.497 374.85 173.555 383.21 169.923 391.716L138.546 285.204L220.006 309.144C217.508 312.093 215.02 315.095 212.595 318.205ZM303.22 254.57C297.691 255.483 292.024 257.005 286.365 259.071C282.828 260.361 279.243 261.922 275.685 263.671C276.994 261.735 278.342 259.797 279.763 257.878C284.713 251.194 290.377 244.546 296.64 238.123C297.251 237.485 297.91 236.861 298.545 236.229L303.22 254.57Z" fill="currentColor"/>
    </g>
</svg>