<svg width="608" height="608" viewBox="0 0 608 608" fill="none" xmlns="http://www.w3.org/2000/svg">
<path d="M369.92 179.691C368.685 175.082 368.15 169.968 368.32 164.406C368.611 155.123 370.837 145.153 374.966 134.774C378.941 124.741 384.492 114.793 391.446 105.202C398.376 95.6523 406.329 86.9785 415.082 79.4442C424.084 71.6964 433.495 65.5199 443.066 61.0827C452.555 56.6902 461.619 54.2727 470.01 53.9084C478.051 53.5587 485.136 55.0895 491.067 58.4637C496.94 61.7971 501.379 66.7667 504.266 73.2353C507.212 79.8348 508.405 87.7159 507.818 96.6834C507.241 105.558 504.935 115.008 500.98 124.765C497.166 134.169 491.982 143.511 485.566 152.517C479.122 161.553 471.739 169.849 463.615 177.181C455.137 184.822 446.186 191.09 437.022 195.813C427.745 200.6 418.747 203.53 410.292 204.532C401.996 205.513 394.558 204.596 388.185 201.814C381.719 198.99 376.707 194.388 373.271 188.156C371.857 185.557 370.735 182.733 369.92 179.691ZM505.223 79.3976C504.687 77.3979 504.011 75.492 503.207 73.677C500.412 67.4206 496.125 62.6245 490.459 59.4048C484.722 56.1367 477.838 54.6535 470.019 54.9999C461.78 55.3575 452.87 57.7339 443.529 62.0641C434.062 66.4508 424.742 72.5693 415.827 80.2484C407.143 87.7306 399.253 96.3312 392.375 105.811C385.47 115.321 379.978 125.185 376.03 135.143C371.955 145.417 369.742 155.26 369.464 164.416C369.183 173.47 370.802 181.271 374.291 187.612C377.601 193.64 382.439 198.075 388.679 200.802C394.853 203.502 402.094 204.382 410.186 203.432C418.492 202.447 427.347 199.556 436.504 194.846C445.575 190.17 454.436 183.961 462.847 176.383C470.906 169.113 478.235 160.877 484.626 151.911C491.002 142.972 496.137 133.711 499.913 124.386C503.824 114.731 506.101 105.39 506.673 96.6292C507.096 90.3002 506.599 84.5337 505.223 79.3976Z" fill="#00CEBA"/>
<path d="M537.465 348.801C543.032 342.03 546.258 333.506 547.069 323.486C547.881 313.42 546.185 302.481 542.047 290.945C538.051 279.81 531.967 268.659 523.962 257.809C515.993 247.006 506.57 237.099 495.946 228.383C485.036 219.429 473.396 212.147 461.345 206.757C449.429 201.433 437.822 198.272 426.857 197.374C416.384 196.514 406.952 197.733 398.801 201.011C390.743 204.242 384.348 209.329 379.788 216.123C375.135 223.055 372.616 231.491 372.306 241.185C372.076 248.15 372.997 255.496 375.039 263.116C375.811 265.999 376.747 268.919 377.831 271.866C381.665 282.22 387.309 292.609 394.596 302.715C401.906 312.861 410.548 322.266 420.28 330.69C430.442 339.485 441.381 346.83 452.801 352.546C464.382 358.332 475.8 362.109 486.762 363.785C497.526 365.425 507.401 364.978 516.104 362.443C524.959 359.856 532.147 355.268 537.465 348.801Z" fill="#00CEBA"/>
<path d="M269.765 462.077C270.385 467.732 271.345 473.555 272.602 479.388C273.856 485.212 275.433 491.14 277.293 497.026C279.156 502.923 281.346 508.902 283.795 514.788L284.985 517.65L219.265 480.369L268.983 451.604C268.895 449.473 268.848 447.365 268.859 445.298C268.892 439.84 269.253 434.509 269.943 429.44C270.633 424.371 271.663 419.47 273.002 414.892C273.53 413.081 274.132 411.329 274.761 409.593C274.245 407.182 273.816 404.702 273.488 402.161C272.859 397.355 272.565 392.256 272.604 387C272.616 385.113 272.689 383.187 272.781 381.245L217.626 352.639L218.713 481.34L287.308 520.254L284.856 514.357C282.413 508.492 280.242 502.542 278.388 496.677C276.54 490.832 274.969 484.925 273.723 479.133C272.477 473.342 271.526 467.55 270.903 461.93C270.499 458.226 270.246 454.56 270.115 450.951L268.994 451.601C269.13 455.05 269.373 458.55 269.765 462.077Z" fill="#00CEBA"/>
<path d="M216.466 350.772L149.089 315.83L151.51 321.611C153.938 327.424 156.134 333.334 158.018 339.18C159.894 344.994 161.514 350.866 162.837 356.637C164.154 362.386 165.174 368.126 165.898 373.685C166.089 375.145 166.256 376.601 166.397 378.052L139.109 392.55L141.785 395.51C144.712 398.742 147.332 402.371 149.592 406.278C151.829 410.146 153.752 414.379 155.316 418.856C156.861 423.304 158.084 428.086 158.934 433.059C158.968 433.23 158.98 433.408 159.014 433.579C157.69 436.28 156.202 438.811 154.583 441.117L152.64 443.883L160.398 448.279C160.399 448.414 160.414 448.557 160.415 448.692C160.549 454.07 160.325 459.692 159.744 465.386C159.162 471.036 158.232 476.88 156.967 482.747C155.707 488.589 154.088 494.584 152.155 500.551C150.225 506.528 147.932 512.602 145.35 518.607L142.771 524.622L217.574 481.352L216.466 350.772ZM167.03 373.517C166.306 367.913 165.266 362.145 163.955 356.371C163.4 353.948 162.795 351.515 162.141 349.073C161.227 345.663 160.214 342.235 159.113 338.83C157.221 332.952 155.019 327.022 152.571 321.18L151.344 318.271L215.903 351.747L167.488 377.466C167.348 376.15 167.196 374.837 167.03 373.517ZM154.255 443.495L155.516 441.702C156.879 439.757 158.131 437.662 159.291 435.445C159.827 439.159 160.185 443 160.335 446.942L154.255 443.495Z" fill="#00CEBA"/>
<path d="M271.069 429.556C270.39 434.577 270.028 439.863 269.995 445.275C269.988 447.138 270.028 449.045 270.104 450.954L289.459 439.755L287.263 437.095C284.878 434.214 282.742 430.94 280.913 427.369C279.083 423.787 277.522 419.851 276.284 415.671C275.896 414.353 275.557 413 275.223 411.623C274.829 412.789 274.449 413.963 274.099 415.162C272.781 419.689 271.762 424.542 271.069 429.556Z" fill="#00CEBA"/>
<path d="M286.59 388.408L285.022 390.464C282.401 393.907 280.047 397.73 278.038 401.833C276.828 404.301 275.747 406.903 274.764 409.603C274.911 410.285 275.07 410.965 275.228 411.644C276.34 408.368 277.621 405.239 279.067 402.291C281.046 398.252 283.36 394.496 285.937 391.11L288.279 388.034L272.83 380.025C272.811 380.436 272.792 380.847 272.77 381.248L286.59 388.408Z" fill="#00CEBA"/>
<path d="M217.11 351.108L272.839 380.011C273.022 376.916 273.295 373.763 273.692 370.589C274.39 364.976 275.416 359.185 276.756 353.377C278.099 347.535 279.784 341.567 281.739 335.64C283.711 329.686 286.023 323.64 288.594 317.683L291.136 311.791L217.11 351.108Z" fill="#00CEBA"/>
<path d="M219.183 168.608L235.384 200.117L291.871 93.5862L219.183 168.608Z" fill="#00CEBA"/>
<path d="M291.765 96.1755L236.006 201.338L288.205 302.875L215.688 239.653L236.006 201.338L235.384 200.117L214.471 239.551L214.278 239.93L289.496 305.496L291.765 96.1755Z" fill="#00CEBA"/>
<path d="M290.629 305.507L367.305 238.34L347.05 198.949L363.95 167.077L292.933 93.6395L290.629 305.507ZM346.418 197.731L294.625 97.0103L362.568 167.278L346.418 197.731Z" fill="#00CEBA"/>
</svg>
