<svg width="12" height="14" viewBox="0 0 12 14" fill="none" xmlns="http://www.w3.org/2000/svg">
<path fill-rule="evenodd" clip-rule="evenodd" d="M1.40565 -0.00012207H10.5942C11.3691 -0.00012207 11.9999 0.630735 11.9999 1.41245V13.7142L10.5257 12.4113L9.69594 11.6433L8.81822 10.8273L9.18165 12.0959H1.40565C0.630796 12.0959 -6.10352e-05 11.465 -6.10352e-05 10.6833V1.41245C-6.10352e-05 0.630735 0.630796 -0.00012207 1.40565 -0.00012207ZM7.4948 8.39988C7.70051 8.66045 7.94737 8.95531 7.94737 8.95531C9.4628 8.90731 10.0457 7.91302 10.0457 7.91302C10.0457 5.70502 9.05822 3.91531 9.05822 3.91531C8.0708 3.17473 7.13137 3.19531 7.13137 3.19531L7.03537 3.30502C8.20108 3.66159 8.7428 4.17588 8.7428 4.17588C8.02965 3.78502 7.33022 3.59302 6.6788 3.51759C6.18508 3.46274 5.71194 3.47645 5.29365 3.53131C5.25774 3.53131 5.22704 3.53653 5.19245 3.54242C5.18742 3.54328 5.18231 3.54415 5.17708 3.54502C4.93708 3.56559 4.35422 3.65473 3.62051 3.97702C3.3668 4.09359 3.21594 4.17588 3.21594 4.17588C3.21594 4.17588 3.78508 3.63416 5.01937 3.27759L4.9508 3.19531C4.9508 3.19531 4.01137 3.17473 3.02394 3.91531C3.02394 3.91531 2.03651 5.70502 2.03651 7.91302C2.03651 7.91302 2.61251 8.90731 4.12794 8.95531C4.12794 8.95531 4.38165 8.64674 4.58737 8.38616C3.71651 8.12559 3.38737 7.57702 3.38737 7.57702C3.38737 7.57702 3.45594 7.62502 3.57937 7.69359C3.58622 7.70045 3.59308 7.70731 3.6068 7.71416C3.61708 7.72102 3.62737 7.72616 3.63765 7.73131C3.64794 7.73645 3.65822 7.74159 3.66851 7.74845C3.83994 7.84445 4.01137 7.91988 4.16908 7.98159C4.45022 8.09131 4.78622 8.20102 5.17708 8.27645C5.69137 8.37245 6.2948 8.40674 6.95308 8.28331C7.27537 8.22845 7.60451 8.13245 7.94737 7.98845C8.18737 7.89931 8.4548 7.76902 8.73594 7.58388C8.73594 7.58388 8.39308 8.14616 7.4948 8.39988ZM4.05913 6.51403C4.05913 6.09574 4.36771 5.75288 4.75856 5.75288C5.14942 5.75288 5.46485 6.09574 5.45799 6.51403C5.45799 6.93232 5.14942 7.27518 4.75856 7.27518C4.37456 7.27518 4.05913 6.93232 4.05913 6.51403ZM6.56199 6.51403C6.56199 6.09574 6.87056 5.75288 7.26142 5.75288C7.65228 5.75288 7.96085 6.09574 7.96085 6.51403C7.96085 6.93232 7.65228 7.27518 7.26142 7.27518C6.87742 7.27518 6.56199 6.93232 6.56199 6.51403Z" fill="#AEAEB2"/>
</svg>
