<svg width="20" height="20" viewBox="0 0 20 20" fill="none" xmlns="http://www.w3.org/2000/svg">
<path fill-rule="evenodd" clip-rule="evenodd" d="M19.3332 1.69567V18.2998C19.3332 18.8707 18.8707 19.329 18.304 19.329H13.5457V12.104H15.9707L16.3332 9.28734H13.5415V7.48734C13.5415 6.67067 13.7665 6.1165 14.9373 6.1165H16.429V3.59567C16.1707 3.56234 15.2873 3.48317 14.254 3.48317C12.104 3.48317 10.629 4.79567 10.629 7.20817V9.28734H8.19567V12.104H10.629V19.3332H1.69567C1.129 19.3332 0.666504 18.8707 0.666504 18.304V1.69567C0.666504 1.129 1.129 0.666504 1.69567 0.666504H18.2998C18.8707 0.666504 19.3332 1.129 19.3332 1.69567Z" fill="#0048D4"/>
</svg>
