<svg width="16" height="16" viewBox="0 0 16 16" fill="none" xmlns="http://www.w3.org/2000/svg">
<path fill-rule="evenodd" clip-rule="evenodd" d="M3.40571 2H12.5943C13.3691 2 14 2.63086 14 3.41257V15.7143L12.5257 14.4114L11.696 13.6434L10.8183 12.8274L11.1817 14.096H3.40571C2.63086 14.096 2 13.4651 2 12.6834V3.41257C2 2.63086 2.63086 2 3.40571 2ZM9.49486 10.4C9.70057 10.6606 9.94743 10.9554 9.94743 10.9554C11.4629 10.9074 12.0457 9.91314 12.0457 9.91314C12.0457 7.70514 11.0583 5.91543 11.0583 5.91543C10.0709 5.17486 9.13143 5.19543 9.13143 5.19543L9.03543 5.30514C10.2011 5.66171 10.7429 6.176 10.7429 6.176C10.0297 5.78514 9.33029 5.59314 8.67886 5.51771C8.18514 5.46286 7.712 5.47657 7.29371 5.53143C7.2578 5.53143 7.2271 5.53665 7.19251 5.54254C7.18748 5.5434 7.18237 5.54427 7.17714 5.54514C6.93714 5.56571 6.35429 5.65486 5.62057 5.97714C5.36686 6.09371 5.216 6.176 5.216 6.176C5.216 6.176 5.78514 5.63429 7.01943 5.27771L6.95086 5.19543C6.95086 5.19543 6.01143 5.17486 5.024 5.91543C5.024 5.91543 4.03657 7.70514 4.03657 9.91314C4.03657 9.91314 4.61257 10.9074 6.128 10.9554C6.128 10.9554 6.38171 10.6469 6.58743 10.3863C5.71657 10.1257 5.38743 9.57714 5.38743 9.57714C5.38743 9.57714 5.456 9.62514 5.57943 9.69371C5.58629 9.70057 5.59314 9.70743 5.60686 9.71429C5.61714 9.72114 5.62743 9.72629 5.63772 9.73143C5.648 9.73657 5.65829 9.74171 5.66857 9.74857C5.84 9.84457 6.01143 9.92 6.16914 9.98171C6.45029 10.0914 6.78629 10.2011 7.17714 10.2766C7.69143 10.3726 8.29486 10.4069 8.95314 10.2834C9.27543 10.2286 9.60457 10.1326 9.94743 9.98857C10.1874 9.89943 10.4549 9.76914 10.736 9.584C10.736 9.584 10.3931 10.1463 9.49486 10.4ZM6.05919 8.51415C6.05919 8.09586 6.36777 7.75301 6.75862 7.75301C7.14948 7.75301 7.46491 8.09586 7.45805 8.51415C7.45805 8.93244 7.14948 9.2753 6.75862 9.2753C6.37462 9.2753 6.05919 8.93244 6.05919 8.51415ZM8.56205 8.51415C8.56205 8.09586 8.87062 7.75301 9.26148 7.75301C9.65234 7.75301 9.96091 8.09586 9.96091 8.51415C9.96091 8.93244 9.65234 9.2753 9.26148 9.2753C8.87748 9.2753 8.56205 8.93244 8.56205 8.51415Z" fill="#AEAEB2"/>
</svg>
