<svg width="16" height="16" viewBox="0 0 16 16" fill="none" xmlns="http://www.w3.org/2000/svg">
<path fill-rule="evenodd" clip-rule="evenodd" d="M14 2.66161V13.3357C14 13.7027 13.7027 13.9973 13.3384 13.9973H10.2795V9.35268H11.8384L12.0714 7.54196H10.2768V6.38482C10.2768 5.85982 10.4214 5.50357 11.1741 5.50357H12.133V3.88304C11.967 3.86161 11.3991 3.81071 10.7348 3.81071C9.35268 3.81071 8.40446 4.65446 8.40446 6.20536V7.54196H6.84018V9.35268H8.40446V14H2.66161C2.29732 14 2 13.7027 2 13.3384V2.66161C2 2.29732 2.29732 2 2.66161 2H13.3357C13.7027 2 14 2.29732 14 2.66161Z" fill="#AEAEB2"/>
</svg>
