<svg width="16" height="16" viewBox="0 0 16 16" fill="none" xmlns="http://www.w3.org/2000/svg">
<path fill-rule="evenodd" clip-rule="evenodd" d="M8.00061 1.5C6.2353 1.5 6.01376 1.50772 5.32041 1.53927C4.62843 1.57096 4.15609 1.68051 3.74279 1.84125C3.31528 2.00728 2.95263 2.22936 2.59133 2.59079C2.22977 2.95209 2.00768 3.31474 1.84112 3.74212C1.67997 4.15555 1.57028 4.62802 1.53914 5.31974C1.50813 6.01308 1.5 6.23476 1.5 8.00007C1.5 9.76538 1.50785 9.98624 1.53927 10.6796C1.57109 11.3716 1.68065 11.8439 1.84125 12.2572C2.00741 12.6847 2.2295 13.0474 2.59093 13.4087C2.95209 13.7702 3.31474 13.9929 3.74198 14.1589C4.15555 14.3196 4.62802 14.4292 5.31987 14.4609C6.01321 14.4924 6.23462 14.5001 7.9998 14.5001C9.76524 14.5001 9.98611 14.4924 10.6795 14.4609C11.3714 14.4292 11.8443 14.3196 12.2579 14.1589C12.6853 13.9929 13.0474 13.7702 13.4085 13.4087C13.7701 13.0474 13.9922 12.6847 14.1587 12.2573C14.3185 11.8439 14.4282 11.3714 14.4607 10.6797C14.4919 9.98638 14.5 9.76538 14.5 8.00007C14.5 6.23476 14.4919 6.01321 14.4607 5.31987C14.4282 4.62789 14.3185 4.15555 14.1587 3.74225C13.9922 3.31474 13.7701 2.95209 13.4085 2.59079C13.047 2.22923 12.6854 2.00714 12.2575 1.84125C11.8431 1.68051 11.3705 1.57096 10.6785 1.53927C9.98516 1.50772 9.76443 1.5 7.99858 1.5H8.00061ZM7.41747 2.67135C7.59053 2.67108 7.78364 2.67135 8.00058 2.67135C9.7361 2.67135 9.9418 2.67758 10.6271 2.70872C11.2609 2.7377 11.6049 2.8436 11.834 2.93257C12.1373 3.05038 12.3536 3.19122 12.581 3.41872C12.8085 3.64622 12.9493 3.86289 13.0674 4.16623C13.1564 4.39508 13.2624 4.73905 13.2912 5.3728C13.3224 6.05802 13.3291 6.26385 13.3291 7.99856C13.3291 9.73327 13.3224 9.9391 13.2912 10.6243C13.2622 11.2581 13.1564 11.602 13.0674 11.8309C12.9496 12.1342 12.8085 12.3502 12.581 12.5776C12.3535 12.8051 12.1375 12.9459 11.834 13.0637C11.6051 13.1531 11.2609 13.2587 10.6271 13.2877C9.94193 13.3189 9.7361 13.3256 8.00058 13.3256C6.26493 13.3256 6.05923 13.3189 5.37401 13.2877C4.74026 13.2585 4.39629 13.1526 4.16703 13.0636C3.86369 12.9458 3.64703 12.805 3.41952 12.5775C3.19202 12.3499 3.05119 12.1338 2.9331 11.8303C2.84413 11.6015 2.7381 11.2575 2.70926 10.6238C2.67811 9.93856 2.67188 9.73272 2.67188 7.99693C2.67188 6.26115 2.67811 6.05639 2.70926 5.37118C2.73823 4.73742 2.84413 4.39346 2.9331 4.16433C3.05092 3.861 3.19202 3.64433 3.41952 3.41682C3.64703 3.18932 3.86369 3.04849 4.16703 2.9304C4.39616 2.84103 4.74026 2.7354 5.37401 2.70629C5.97364 2.6792 6.20602 2.67108 7.41747 2.66972V2.67135ZM11.4703 3.75063C11.0396 3.75063 10.6903 4.09961 10.6903 4.53037C10.6903 4.961 11.0396 5.31038 11.4703 5.31038C11.9009 5.31038 12.2503 4.961 12.2503 4.53037C12.2503 4.09974 11.9009 3.75063 11.4703 3.75063ZM8.00062 4.66199C6.15717 4.66199 4.66256 6.1566 4.66256 8.00005C4.66256 9.8435 6.15717 11.3374 8.00062 11.3374C9.84407 11.3374 11.3381 9.8435 11.3381 8.00005C11.3381 6.1566 9.84407 4.66199 8.00062 4.66199ZM8.00059 5.83336C9.19715 5.83336 10.1673 6.80336 10.1673 8.00005C10.1673 9.1966 9.19715 10.1667 8.00059 10.1667C6.80391 10.1667 5.83391 9.1966 5.83391 8.00005C5.83391 6.80336 6.80391 5.83336 8.00059 5.83336Z" fill="#AEAEB2"/>
</svg>
