<svg width="16" height="16" viewBox="0 0 16 16" fill="none" xmlns="http://www.w3.org/2000/svg">
<path fill-rule="evenodd" clip-rule="evenodd" d="M4.40987 14.4972H1.71471V5.8199H4.40987V14.4972ZM3.06081 4.63613C2.19917 4.63613 1.5 3.92245 1.5 3.06081C1.5 2.19917 2.19917 1.5 3.06081 1.5C3.92245 1.5 4.62162 2.19917 4.62162 3.06081C4.62162 3.92245 3.92245 4.63613 3.06081 4.63613ZM14.4972 14.4972H11.8078V10.2732C11.8078 9.26647 11.7875 7.97546 10.4066 7.97546C9.00534 7.97546 8.79066 9.06919 8.79066 10.2006V14.4972H6.0984V5.81992H8.68331V7.00358H8.72103C9.08077 6.32181 9.95981 5.60233 11.2711 5.60233C13.9982 5.60233 14.5001 7.39814 14.5001 9.73065V14.4972H14.4972Z" fill="#AEAEB2"/>
</svg>
