<svg width="16" height="16" viewBox="0 0 16 16" fill="none" xmlns="http://www.w3.org/2000/svg">
<path fill-rule="evenodd" clip-rule="evenodd" d="M13.1637 5.29833C13.172 5.41381 13.172 5.52931 13.172 5.64479C13.172 9.16699 10.4912 13.2254 5.59138 13.2254C4.08186 13.2254 2.67958 12.7882 1.5 12.0293C1.71448 12.0541 1.92067 12.0623 2.1434 12.0623C3.38894 12.0623 4.53554 11.6416 5.45115 10.924C4.27983 10.8992 3.29822 10.1321 2.96002 9.07627C3.12501 9.101 3.28997 9.11751 3.46321 9.11751C3.70242 9.11751 3.94165 9.0845 4.16435 9.02678C2.94354 8.7793 2.0279 7.70697 2.0279 6.41192V6.37894C2.38258 6.57691 2.79505 6.70064 3.23221 6.71712C2.51456 6.23868 2.0444 5.42206 2.0444 4.4982C2.0444 4.00328 2.17636 3.5496 2.40734 3.15366C3.7189 4.77041 5.69036 5.82623 7.901 5.94174C7.85977 5.74376 7.83501 5.53757 7.83501 5.33134C7.83501 3.86305 9.02284 2.66699 10.4994 2.66699C11.2665 2.66699 11.9594 2.98869 12.4461 3.50836C13.0482 3.39289 13.6256 3.17016 14.1371 2.86496C13.9391 3.48363 13.5184 4.00331 12.9657 4.33323C13.5019 4.27552 14.0216 4.12701 14.5 3.92081C14.1371 4.44871 13.6834 4.91887 13.1637 5.29833Z" fill="#AEAEB2"/>
</svg>
