<svg width="16" height="16" viewBox="0 0 16 16" fill="none" xmlns="http://www.w3.org/2000/svg">
<path fill-rule="evenodd" clip-rule="evenodd" d="M13.4696 3.29855C14.072 3.46282 14.5464 3.94685 14.7074 4.56153C15 5.67556 15 8 15 8C15 8 15 10.3244 14.7074 11.4385C14.5464 12.0531 14.072 12.5372 13.4696 12.7015C12.3779 13 8 13 8 13C8 13 3.62206 13 2.5303 12.7015C1.9279 12.5372 1.45349 12.0531 1.29249 11.4385C1 10.3244 1 8 1 8C1 8 1 5.67556 1.29249 4.56153C1.45349 3.94685 1.9279 3.46282 2.5303 3.29855C3.62206 3 8 3 8 3C8 3 12.3779 3 13.4696 3.29855ZM6.68751 6.04343V10.3913L10.1875 8.21743L6.68751 6.04343Z" fill="#AEAEB2"/>
</svg>
