<svg width="14" height="14" viewBox="0 0 14 14" fill="none" xmlns="http://www.w3.org/2000/svg">
<path fill-rule="evenodd" clip-rule="evenodd" d="M7.00055 0.499878C5.23524 0.499878 5.01369 0.507597 4.32035 0.539149C3.62837 0.570837 3.15603 0.68039 2.74273 0.841131C2.31522 1.00715 1.95257 1.22924 1.59127 1.59067C1.22971 1.95197 1.00762 2.31462 0.841057 2.74199C0.67991 3.15543 0.570221 3.6279 0.539075 4.31962C0.508064 5.01296 0.499939 5.23463 0.499939 6.99994C0.499939 8.76525 0.507793 8.98612 0.53921 9.67946C0.571033 10.3714 0.680587 10.8438 0.841193 11.2571C1.00735 11.6846 1.22944 12.0472 1.59087 12.4085C1.95203 12.7701 2.31468 12.9927 2.74192 13.1588C3.15549 13.3195 3.62796 13.4291 4.31981 13.4607C5.01315 13.4923 5.23456 13.5 6.99974 13.5C8.76518 13.5 8.98605 13.4923 9.67939 13.4607C10.3714 13.4291 10.8443 13.3195 11.2578 13.1588C11.6852 12.9927 12.0473 12.7701 12.4085 12.4085C12.77 12.0472 12.9921 11.6846 13.1587 11.2572C13.3185 10.8438 13.4282 10.3713 13.4607 9.6796C13.4918 8.98626 13.4999 8.76525 13.4999 6.99994C13.4999 5.23463 13.4918 5.01309 13.4607 4.31975C13.4282 3.62776 13.3185 3.15543 13.1587 2.74213C12.9921 2.31462 12.77 1.95197 12.4085 1.59067C12.0469 1.2291 11.6853 1.00702 11.2574 0.841131C10.843 0.68039 10.3704 0.570837 9.67844 0.539149C8.9851 0.507597 8.76437 0.499878 6.99852 0.499878H7.00055ZM6.41741 1.67123C6.59047 1.67096 6.78358 1.67123 7.00052 1.67123C8.73604 1.67123 8.94174 1.67746 9.62709 1.7086C10.2608 1.73758 10.6048 1.84348 10.8339 1.93245C11.1373 2.05026 11.3535 2.1911 11.5809 2.4186C11.8084 2.6461 11.9492 2.86277 12.0673 3.16611C12.1563 3.39496 12.2623 3.73892 12.2912 4.37268C12.3223 5.0579 12.3291 5.26373 12.3291 6.99844C12.3291 8.73314 12.3223 8.93898 12.2912 9.62419C12.2622 10.258 12.1563 10.6019 12.0673 10.8308C11.9495 11.1341 11.8084 11.3501 11.5809 11.5775C11.3534 11.805 11.1374 11.9458 10.8339 12.0636C10.6051 12.153 10.2608 12.2586 9.62709 12.2876C8.94187 12.3187 8.73604 12.3255 7.00052 12.3255C5.26487 12.3255 5.05917 12.3187 4.37395 12.2876C3.74019 12.2583 3.39623 12.1524 3.16697 12.0635C2.86363 11.9457 2.64696 11.8048 2.41946 11.5773C2.19196 11.3498 2.05113 11.1337 1.93304 10.8302C1.84407 10.6014 1.73804 10.2574 1.70919 9.62365C1.67805 8.93844 1.67182 8.7326 1.67182 6.99681C1.67182 5.26102 1.67805 5.05627 1.70919 4.37106C1.73817 3.7373 1.84407 3.39334 1.93304 3.16421C2.05085 2.86087 2.19196 2.6442 2.41946 2.4167C2.64696 2.1892 2.86363 2.04837 3.16697 1.93028C3.3961 1.8409 3.74019 1.73528 4.37395 1.70616C4.97358 1.67908 5.20596 1.67096 6.41741 1.6696V1.67123ZM10.4702 2.75051C10.0396 2.75051 9.6902 3.09948 9.6902 3.53025C9.6902 3.96088 10.0396 4.31026 10.4702 4.31026C10.9008 4.31026 11.2502 3.96088 11.2502 3.53025C11.2502 3.09962 10.9008 2.75051 10.4702 2.75051ZM7.00056 3.66187C5.15711 3.66187 3.6625 5.15648 3.6625 6.99993C3.6625 8.84337 5.15711 10.3373 7.00056 10.3373C8.84401 10.3373 10.3381 8.84337 10.3381 6.99993C10.3381 5.15648 8.84401 3.66187 7.00056 3.66187ZM7.00053 4.83324C8.19709 4.83324 9.16722 5.80324 9.16722 6.99993C9.16722 8.19648 8.19709 9.16662 7.00053 9.16662C5.80384 9.16662 4.83384 8.19648 4.83384 6.99993C4.83384 5.80324 5.80384 4.83324 7.00053 4.83324Z" fill="#AEAEB2"/>
</svg>
