<svg width="14" height="10" viewBox="0 0 14 10" fill="none" xmlns="http://www.w3.org/2000/svg">
<path fill-rule="evenodd" clip-rule="evenodd" d="M12.4696 0.298426C13.072 0.462701 13.5464 0.946733 13.7074 1.56141C13.9999 2.67544 13.9999 4.99988 13.9999 4.99988C13.9999 4.99988 13.9999 7.32423 13.7074 8.43835C13.5464 9.05302 13.072 9.53706 12.4696 9.70141C11.3779 9.99988 6.99994 9.99988 6.99994 9.99988C6.99994 9.99988 2.622 9.99988 1.53023 9.70141C0.927837 9.53706 0.453428 9.05302 0.292428 8.43835C-6.10352e-05 7.32423 -6.10352e-05 4.99988 -6.10352e-05 4.99988C-6.10352e-05 4.99988 -6.10352e-05 2.67544 0.292428 1.56141C0.453428 0.946733 0.927837 0.462701 1.53023 0.298426C2.622 -0.00012207 6.99994 -0.00012207 6.99994 -0.00012207C6.99994 -0.00012207 11.3779 -0.00012207 12.4696 0.298426ZM5.68745 3.04331V7.39114L9.18745 5.21731L5.68745 3.04331Z" fill="#AEAEB2"/>
</svg>
